<?xml version="1.0" encoding="utf-8"?>
<!-- Generator: Adobe Illustrator 16.0.0, SVG Export Plug-In . SVG Version: 6.00 Build 0)  -->
<!DOCTYPE svg PUBLIC "-//W3C//DTD SVG 1.1//EN" "http://www.w3.org/Graphics/SVG/1.1/DTD/svg11.dtd">
<svg version="1.1" id="Calque_1" xmlns="http://www.w3.org/2000/svg" xmlns:xlink="http://www.w3.org/1999/xlink" x="0px" y="0px"
	 width="960px" height="560px" viewBox="0 0 960 560" enable-background="new 0 0 960 560" xml:space="preserve">
<path fill="#FFFFFF" stroke="#000000" stroke-width="5" stroke-miterlimit="10" d="M601.102,330"/>
<g>
	<g>
		<g>
			<g>
				<g>
					<path fill="#1D1D1D" d="M192.539,233.007l1.76-0.026C194.136,232.949,193.652,232.949,192.539,233.007z"/>
					<path fill="#1D1D1D" d="M190.956,232.547c-0.042-0.001-0.108-0.004-0.146-0.005
						C190.832,232.562,190.876,232.56,190.956,232.547z"/>
					<path fill="#1D1D1D" d="M543.197,283.017c0.599,0.297,1.125,0.533,1.428,0.638
						C543.788,283.187,543.364,283.039,543.197,283.017z"/>
					<path fill="#1D1D1D" d="M441.444,266.942c0.04-0.055,0.065-0.099,0.062-0.14C441.36,266.85,441.315,266.897,441.444,266.942z"
						/>
					<path fill="#1D1D1D" d="M213.118,232.812c-0.271-0.013-0.548-0.027-0.801-0.039
						C212.152,232.888,212.919,232.881,213.118,232.812z"/>
					<path fill="#1D1D1D" d="M565.789,298.588c0.094,0.026,0.183,0.044,0.249,0.03C565.908,298.581,565.844,298.581,565.789,298.588
						z"/>
					<path fill="#1D1D1D" d="M276.533,237.073c0.238-0.008,0.494-0.004,0.745-0.001C277.014,237.052,276.75,237.047,276.533,237.073
						z"/>
					<path fill="#1D1D1D" d="M419.198,260.627c-0.362,0.136-0.558,0.234-0.65,0.308C418.959,260.81,419.253,260.693,419.198,260.627
						z"/>
					<path fill="#1D1D1D" d="M419.158,261.973c5.25-1.594-1.306-0.47-0.61-1.038c-1.416,0.4-4.454,1.167-2.95,1.071
						c-3.024-0.091-8.258,2.829-11.394,3.293c-0.099,0.119,1.697-0.223-0.278,0.665c-2.988,1.229-2.903,0.796-4.199,1.12
						c-0.811,0.575-5.264,2.671-4.86,2.412c-1.866,1.089,2.396-0.258-0.172,1.322c-1.607,1.318-4.252,2.154-6.276,3.439
						c-1.343,0.542-0.752,0.133,0.298-0.505c1.052-0.633,2.598-1.415,3.084-1.776c0,0-0.445,0.246-1.113,0.616
						c-0.667,0.372-1.563,0.848-2.43,1.39c-0.871,0.527-1.743,1.055-2.396,1.45c-0.64,0.421-1.066,0.702-1.066,0.702
						c-2.183,1.049,0.622-1.067,2.78-2.152c-3.041,1.248-6.414,3.882-6.948,4.792c-0.884,0.521-1.509,1.003-2.137,1.454
						c-0.621,0.461-1.26,0.864-2.069,1.417c1.381-1.375,0.819-1.928,3.243-3.813c4.184-2.77-1.171,1.499,2.416-0.787l0.054-0.588
						c1.694-0.719,2.717-1.83,4.412-2.792c1.005-0.435-0.126,0.26-0.725,0.673c3.037-1.78,5.608-2.845,7.776-4.43
						c-1.12,0.389-2.329,0.955-3.548,1.575c-1.231,0.595-2.449,1.3-3.592,1.966c-1.153,0.643-2.202,1.313-3.103,1.839
						c-0.901,0.523-1.65,0.913-2.152,1.108c0,0-0.474,0.368-1.184,0.92c-0.716,0.537-1.644,1.302-2.555,2.09
						c-0.925,0.762-1.816,1.576-2.474,2.202c-0.661,0.616-1.102,1.027-1.102,1.027c0.144,0.156,2.927-1.673,1.038,0.267
						c-1.193,0.285-3.528,1.947-6.206,4.654c0.684-0.324-0.238,0.897-1.11,2.055c-0.834,1.214-1.603,2.383-0.829,1.771
						c0.851-1.6,1.831-1.92,2.025-2.066c-1.198,1.344-1.117,1.589-0.978,1.591c0.155,0.021,0.434-0.117-0.166,0.67
						c-1.061,1.252-1.519,1.944-1.783,2.237c-0.257,0.3-0.279,0.244-0.3,0.183c-0.021-0.061-0.042-0.126-0.301,0.158
						c-0.273,0.27-0.736,0.942-1.614,2.392c0.425-1.389,1.867-4.843,4.136-7.767c-0.185,0.007-0.796,0.692-1.459,1.575
						c-0.342,0.43-0.709,0.892-1.053,1.323c-0.332,0.452-0.656,0.862-0.943,1.153c1.516-1.679-0.419,1.601,0.722,0.155
						c-1.439,2.31-2.773,5.054-3.528,8.297c-0.78,3.189-0.817,7.086,0.651,10.658c-0.152-0.101-0.347-0.365-0.567-0.756
						c-0.244-0.385-0.432-0.909-0.598-1.518c-0.406-1.212-0.557-2.747-0.576-4.133c0.021-0.69,0.042-1.352,0.06-1.939
						c0.067-0.563,0.12-1.06,0.138-1.443c0.037-0.767-0.067-1.094-0.455-0.575c-0.175,0.925-0.302,1.601-0.324,2.188
						c-0.011,0.596,0.007,1.056,0.023,1.488c-0.002,0.85,0.157,1.653,0.2,3.22c0,0.686,0.05,1.646,0.334,2.734
						c0.168,0.541,0.369,1.12,0.6,1.721c0.228,0.601,0.601,1.164,0.938,1.769c1.448,2.36,3.696,4.391,5.755,5.704l-1.617-1.508
						c1.603,1.037,4.393,2.945,6.266,3.651l-0.531-0.104c0,0,1.9,0.642,1.898,0.59c0.281,0.116,0.338,0.164,0.322,0.192
						c0.53,0.104,1.243,0.302,2.078,0.554c0.829,0.199,1.785,0.429,2.798,0.673c2.007,0.43,4.227,0.805,6.161,0.919
						c0.019-0.211-0.927-0.324-2.109-0.422c-1.179-0.123-2.594-0.305-3.503-0.481c-0.49-0.198-3.994-1.243-2.203-1.106
						c1.184,0.283,2.29,0.542,3.342,0.648c1.057,0.128,2.076,0.275,3.121,0.311c2.085,0.137,4.24,0.207,6.897,0.242
						c0,0-0.422-0.036-0.844-0.073c-0.421-0.03-0.841-0.089-0.841-0.089c0.849-0.107,1.839-0.153,2.936-0.139
						c1.096,0.012,2.294-0.042,3.554-0.089c2.289-0.031,1.469,0.172,0.409,0.411c-1.06,0.198-2.364,0.373-0.956,0.444
						c-1.806,0.499-4.992,0.021-5.491,0.547l2.951,0.62c1.236-0.22,2.533-0.214,3.743-0.21c1.207-0.029,2.333-0.001,3.191-0.138
						c0,0-0.47-0.01-0.94-0.037c-0.469-0.024-0.938-0.048-0.938-0.048c0.324-0.48,2.063-0.291,2.933-0.369l-1.31-0.496
						c-1.337,0.063-2.447,0.286-3.478,0.443c-1.032,0.125-1.983,0.212-2.962,0.054c2.377-0.196,3.277-0.41,4.288-0.682
						c0.506-0.126,1.041-0.249,1.802-0.372c0.759-0.139,1.737-0.322,3.139-0.514c0.292,0.223-1.066,0.243-1.624,0.516
						c0.973-0.044,1.954-0.248,3.062-0.558c0.556-0.146,1.147-0.297,1.795-0.436c0.645-0.152,1.341-0.317,2.118-0.44
						c-1.698,0.606-4.544,1.354-2.189,1.291c0,0,0.395-0.194,0.78-0.421c0.385-0.218,0.771-0.437,0.771-0.437
						c1.435-0.251,0.901,0.074,1.487-0.046c2.035-0.43-0.585-0.365,2.597-1.116c0.499-0.022,1.568-0.252,1.146,0.001
						c3.584-1.176,1.69-0.687,4.885-2.17c-2.943,1.131-3.29,0.444-0.315-0.786c4.27-1.64,6.776-3.523,9.782-4.65
						c0,0,0.39-0.346,0.781-0.69c0.395-0.334,0.76-0.712,0.76-0.712c-0.814,1.156,2.497-1.532,3.643-2.46
						c0.179,0.023-0.072,0.309-0.542,0.735c-0.466,0.435-1.159,0.995-1.892,1.521c-1.425,1.118-2.986,2.122-2.758,2.497
						c2.639-1.58,1.659-0.649,0.935,0.081c1.406-0.923,1.551-1.27,1.514-1.455c-0.043-0.194-0.293-0.281,0.205-0.848
						c0.176,0.251,4.521-3.453,3.27-1.865c2.203-1.874,2.171-2.624,3.698-4.103c-0.067,0.373-0.13,0.827,0.207,0.861
						c0.084-0.26,2.036-2.274,2.389-2.701c-0.404,0.335,0.3-1.06-1.213,1.014c0.047-0.379,1.02-1.516,1.808-2.709
						c0.203-0.292,0.403-0.578,0.588-0.843c0.169-0.277,0.314-0.541,0.435-0.763c0.239-0.445,0.362-0.739,0.27-0.749
						c0.135-0.002,0.389-0.301,0.705-0.796c0.283-0.52,0.622-1.237,0.979-2.03c0.339-0.805,0.611-1.734,0.917-2.595
						c0.243-0.888,0.44-1.748,0.652-2.431c-0.595,0.031-0.718,1.323-1.008,2.679c-0.162,0.669-0.331,1.366-0.534,1.929
						c-0.233,0.546-0.514,0.946-0.814,1.062c0.62-1.701,1.706-4.636,1.959-8.049c0.315-3.397-0.379-7.133-1.652-9.746
						c-0.335-1.221-0.63-1.766-0.665-2.027c-0.057-0.25,0.05-0.164,0.216,0.036c0.34,0.391,0.888,1.265,0.871,0.706
						c0.446,1.109,0.793,2.026,1.036,2.845c0.194,0.841,0.34,1.566,0.477,2.27c0.165,1.434,0.337,2.779,0.356,4.898
						c0.257-2.318-0.161-5.435-1.083-8.148c-0.25-0.671-0.483-1.341-0.752-1.963c-0.309-0.597-0.607-1.174-0.889-1.719
						c-0.146-0.269-0.281-0.533-0.426-0.777c-0.159-0.232-0.313-0.456-0.459-0.67c-0.296-0.424-0.57-0.803-0.814-1.124
						c-0.303-0.519-0.596-0.952-0.863-1.345c-0.26-0.399-0.483-0.768-0.684-1.121c-0.387-0.72-0.729-1.32-1.113-1.93
						c-0.381-0.613-0.779-1.271-1.363-1.992c-0.606-0.688-1.378-1.471-2.445-2.4c0.303,0.784,0.158,0.76,1.32,2.073
						c-0.58-0.474-1.157-1.039-1.741-1.62c-0.61-0.538-1.224-1.098-1.833-1.611c-0.888-0.452,1.698,1.791-0.109,0.525
						c-0.31-0.298-0.793-0.763-1.17-1.125c-0.382-0.346-0.631-0.622-0.413-0.611l0.313,0.191c-2.2-1.414-2.814-2.18-3.441-2.763
						c-0.615-0.597-1.179-1.148-3.244-2.042c0.223,0.315,1.143,0.675,1.999,1.361c0.54,0.707-1.939-0.545-3.773-1.413
						c0.434-0.018-1.505-0.96-2.718-1.695c-0.629-0.849,3.163,1.654,3.916,1.789c0,0-0.845-0.51-1.69-1.02
						c-0.423-0.254-0.846-0.509-1.163-0.7c-0.316-0.195-0.533-0.309-0.533-0.309s0.178,0.105,0.348,0.227
						c0.172,0.118,0.344,0.236,0.344,0.236s-0.244-0.112-0.611-0.28c-0.372-0.152-0.868-0.354-1.365-0.557
						c-0.99-0.403-1.979-0.806-1.979-0.806c2.693,1.25,1.026,1.101-0.143,0.55c-2.577-1.412-5.243-2.651-4.728-2.943
						c-0.494,0.223-3.846-1.166-6.261-2.067c2.533,1.235,0.189,0.477-0.626,0.339l-3.771-1.905c4.201,1.44-0.736-0.712,0.346-0.637
						c1.358,0.033,3.834,1.135,5.976,2.135c-1.958-1.311-3.542-1.7-5.035-2.106c-1.498-0.401-2.95-0.667-4.773-1.488
						c0.068-0.201,0.48-0.32,2.128,0.289c-0.624-0.352-3.566-0.805-6.056-1.851c0.631,0.351,1.95,1.196-0.659,0.582l-3.202-1.523
						c-3.881-1.291-1.496,0.134-4.8-0.546l2.025,0.929c-0.456,0.349-4.361-1.201-4.599-0.742c2.001,0.568,3.23,0.499,5.301,1.223
						c0.659,0.686-2.75-0.487-4.03-0.568c-4.303-1.416-3.411-1.144-6.581-2.35c0.06-0.778,5.637,0.425,5.192-0.687
						c-2.157-0.516-4.816-1.043-7.27-1.619c-2.457-0.552-4.73-1.036-6.115-1.504c-3.912-0.646-3.689,0.068-3.207,0.598
						c-1.615-0.238-2.388-0.46-3.391-0.775l1.862,0.12c-2.412-0.345-4.308-0.616-6.232-0.891c-1.927-0.249-3.876-0.532-6.385-0.988
						c-2.86-0.374-1.792,0.279-1.172,0.753c0,0-0.772-0.114-1.543-0.228c-0.773-0.101-1.547-0.202-1.547-0.202l0.453,0.169
						c-0.767,0.374-3.473-0.218-5.521-0.559c0.025-0.209,1.287-0.061,1.191-0.208c-1.792-0.472-4.544-0.845-6.057-0.826
						c0.024-0.204,1.348-0.52,3.497-0.039c0.222,0.085,0.097,0.146,0.315,0.232l3.696,0.302c-2.131-0.204-3.804-0.539-4.924-0.881
						c-1.122-0.323-1.689-0.665-1.599-0.908c-4.274-0.332,3.371,0.996-1.695,0.487c-6.509-1.954-12.635-1.358-16.154-3.228
						c-3.131-0.041-6.858,0.051-11.688-0.413c-0.042,0.422-3.24-0.13-2.821,0.434c4.551,0.936,8.688,0.071,12.296,1.216
						c2.079,0.026,1.427-0.412,2.376-0.525c1.83,0.189,3.549,0.448,3.755,0.736c-4.274-0.242-1.257,0.844-6.645,0.275
						c0.647,0.409,5.02,0.798,6.945,1.139c-0.591,0.125-0.039,0.421,1.199,0.737c-1.418,0.171-4.524,0.087-6.156,0.187
						c0.586-0.13-0.434-0.361,0.042-0.424l-5.669,0.007c-1.691-0.44-2.127-0.799-1.181-0.927c-3.084-0.485-8.399-0.375-8.355-1.011
						c-4.019-0.265,1.238,0.489,1.564,0.699l-0.347,0.001c0,0,1.061,0.083,2.122,0.167c1.06,0.091,2.12,0.182,2.12,0.182
						c0.397,0.757-4.799-0.629-5.541,0.009c-0.789,1.283-5.924-0.995-8.922-0.99l3.517-0.678l-3.005-0.035
						c1.75-0.244,1.797-0.879,4.465-1.027c-4.125-0.419-9.981-1.107-12.643-1.146c-1.009-0.405-1.445-0.749-0.965-1.038
						c-4.188,0.324-6.435-0.719-10.014-0.964c-3.813,0.119,3.778,0.727,0.989,1.025c-1.133-0.315-3.221-0.253-4.26-0.217
						c1.158-0.11,5.174,0.471,7.93,0.807c-2.074-0.147-1.873,0.338-2.46,0.497l3.451,0.316c-0.264,0.57-4.255-0.221-5.877-0.026
						c1.053-0.457,0.489-0.509,1.545-0.964c-3.003,0.004-7.492-0.229-10.017-0.671c-1.487-0.287,1.275-0.197,2.093-0.304
						c-0.672-0.393-3.003,0.063-3.56-0.408c0.476-0.302,1.841,0.061,2.888,0.015l-8.754-0.602c0.009-0.21,2.198-0.167,3.575-0.016
						c-2.644-0.386-4.605-0.354-7.743,0.251c-2.987-0.326-6.433-0.765-5.4-1.036c-1.386,0.078-0.47,0.308-0.467,0.521
						c-4.039-0.275-4.51,0.477-6.929,0.427l1.823,0.439c-3.902-0.511-0.93,0.627-4.377,0.226c0.576-0.392,0.363-0.869-0.207-1.325
						c-0.583,0.391-2.77-0.025-4.267-0.064c0.919,0.432-3.228,0.29-0.817,0.76c-3.47,0.226-5.067-0.333-7.612,0.145
						c1.605,0.154-2.999,0.377-1.613,0.692c-3.349-0.021-5.644-0.544-4.729-0.971c1.159,0.051,3.008,0.259,2.883-0.085l-6.102-0.014
						c-1.509-0.229-3.458-0.329-3.696-0.804c-1.957,0.527-5.764-0.406-7.262,0.224c2.074-0.398,3.696,0.164,4.488,0.234
						l-0.946,0.084c0.137,0.001,0.291,0.01,0.492,0.027l-2.64,0.801c2.531,0.337,0.453-0.535,4.036-0.5
						c3.098,0.78-7.032,1.118-3.804,1.609c2.644,0.258,2.183-0.478,4.369-0.745l-0.571-0.02l4.955-0.3
						c0.229,0.261-1.272,0.467-1.272,0.467c5.995,0.065,6.917,0.506,13.36,0.698c-0.465-0.106-1.716-0.923,1.165-1.009
						c2.069-0.167,2.299,0.324,4.019,0.417c-1.031,0.073-1.963,0.476-3.336,0.165l0.101,0.555c-4.84,0.593-2.317,1.169-8.872,1.264
						c-0.307,0.408-5.054,0.517-8.618,0.399l1.725,0.375c-3.677,0.681-0.69-0.574-5.403-0.011c-1.954-0.744-5.535-1.624-2.888-2.214
						c-3.342-0.188-4.483,0.173-7.486,0.195c-1.844-0.594,0.919-0.657,0.572-1.257c-2.196,0.077-4.956,0.35-3.329,0.684
						l-4.161-0.223c-0.111-0.129,1.379-0.136,1.962-0.124c-1.618-0.123-4.724,0.186-5.637,0.417
						c0.341-0.034,1.385-0.138,1.838-0.041c-1.725,0.17-4.827,0.479-5.051,0.643c2.525-0.32,2.762,0.362,5.405-0.042
						c-0.225,0.163-0.677,0.492-2.061,0.417c2.191,0.348,4.375,0.272,5.298,0.675c-1.848-0.296-3.026,0.15-3.416,0.216
						c1.655,0.109,4.951-0.018,6.061-0.197c0.245,0.682,6.438-0.146,4.265,0.565c0.345-0.25,2.761-0.248,4.029-0.081
						c-0.117,0.299-3.33,0.428-4.708,0.785c-6.439,0.358,0.113-0.504-1.389-0.71l-4.915,0.072c0.495,0.096-1.966,0.487,1.241,0.434
						c-1.489,0.432-4.585,0.74-7.115,0.426c-0.581,0.201,1.264,0.157,1.836,0.17c-0.571,0.199-3.662,0.931,0.359,1.025
						c-1.15-0.027,1.95-0.334-0.121-0.553c1.608-0.088,5.976,0.183,4.25,0.567c1.957-0.137,5.63-0.394,7.236-0.506
						c0.463,0.309-1.375,0.133-2.183,0.285l5.635-0.17l-1.612-0.35c4.13,0.266,6.771-0.535,10.104-0.764
						c-0.461,0.536-3.222,0.571-5.401,0.836c2.079,0.663,1.374-0.333,4.826-0.218c0.462,0.1,0.58,0.231,0.353,0.393l2.75-0.459
						c0.802,0.068,0.348,0.182-0.002,0.212c4.716-0.526-0.11-0.771,6.214-0.921c-3.801-0.331-3.234,0.316-6.438,0.234
						c-1.848-0.413,3.671-0.661,4.602-0.863c3.097,0.177,3.438,0.995,7.352,0.617c-2.758,0.218-0.123,0.504-4.026,0.459
						c-2.188,0.243,1.15,0.261,1.599,0.578c1.033-0.082-0.677-0.581,2.191-0.455l-0.115,0.079l4.712-0.504
						c4.368,0.409,9.891-0.391,12.868,0.323l-0.676-0.588c2.755,0.03,6.662,0.18,8.617,0.134c-0.464,0.309-2.305,0.271-4.259,0.311
						c4.94,0.298,9.31,0.081,12.657-0.192c-2.399-0.533-2.75-0.509-5.038-0.871c3.248-0.683,3.783,0.65,7.936,0.462
						c0.086,0.559-1.287,0.409-0.28,0.999c1.737-0.29,4.608-0.065,6.578-0.293c1.008,0.589-0.847,0.954-5.094,0.79
						c-3.195-0.63-6.783,0.004-9.414-0.533l1.598,0.404c-3.226,0.041-5.166-0.131-7.926,0.025l0.115-0.078l-1.394,0.501l1.487,0.057
						c-1.038,0.274-4.146,0.652-5.064,0.646c4.594,0.079,4.955-0.778,7.151-1.187c4.135,0.199,5.712,1.208,8.479,0.878
						c0.213,0.274,2.501,0.665,0.651,0.815c-2.289,0.025-3.887-0.368-4.127-0.002c2.409,0.073,1.482,0.263,5.146,0.38
						c0.714-0.455,3.478-0.79,6.123-1.048c2.77-0.14,6.326,0.103,8.5,0.392c-2.756-0.125-5.528,0.174-4.855,0.576
						c1.632-0.405,5.354,0.744,4.587-0.006c3.2,0.253,8.59,0.56,8.892,1.211c-3.039-0.002-5.951-0.527-8.525-0.567
						c0.706,0.058,1.389,0.253,0.963,0.369l-3.776-0.303c2.842,0.473,2.262,0.632,5.926,0.796c-0.227-0.063-0.681-0.188-0.333-0.198
						c0.912,0.057,2.058,0.127,2.979,0.185l0.076,0.56c2.758-0.086,7.963,1.04,13.004,1.007l-0.459,0.08
						c3.976,0.461,4.404-0.586,8.752-0.328c-1.279,0.146-0.724,0.426-0.525,0.706c2.186-0.078,3.292,0.465,5.438,0.849
						c-2.477-0.588,1.752-0.402-0.049-0.773c-0.068-0.565,4.382-0.094,6.652,0.211c1.281,0.856-7.095-0.356-3.751,0.733
						c2.263,0.305,2.876-0.038,1.292-0.337c1.417,0.193,3.206,0.415,4.887,0.69c1.678,0.291,3.252,0.614,4.25,0.958
						c3.452-0.11,4.781,0.311,7.019-0.07c-1.814-0.226-1.988,0.276-4.229-0.279l2.561-0.212c3.287,0.416,5.833,1.237,8.083,1.614
						l-2.408-0.104l0.126-0.066c-0.937,0.101-3.97-0.455-3.678-0.02c2.208-0.185,3.846,0.521,6.714,0.574l-0.124,0.066
						c5.018,0.36,8.442,2.096,11.734,1.652c-0.897-0.15-2.638-0.837-2.043-0.933c1.094,0.424,4.129,0.894,3.972,1.161l-1.028-0.083
						c2.789,0.577,4.464,0.924,5.495,1.008c0.842-0.213,0.102-0.636,2.153-0.429c4.874,1.203-2.153,0.419,1.129,1.389l4.645,0.542
						c0,0,0.235,0.13,0.47,0.26c0.233,0.135,0.467,0.27,0.467,0.27c3.33,0.933,6.379,1.336,9.443,1.899
						c1.539,0.268,3.092,0.539,4.713,0.822c1.607,0.336,3.273,0.73,5.046,1.216c-0.048,0.583-5.195-0.667-6.976-1.021
						c2.089,0.981,5.383,1.264,8.236,2.383c2.672,0.889,4.846,1.051,4.513,0.623c3.398,0.826,2.261,1.062,2.659,1.28
						c1.249-0.2,5.358,1.357,7.99,2.267l-0.001,0.363c0,0,1.057,0.285,2.114,0.569c1.042,0.317,2.084,0.634,2.084,0.634
						c-1.017-0.463,0.023-0.361,0.103-0.557l1.019,0.46c-3.573-2.574-9.216-2.87-13.052-5.267c1.323,0.312-0.341-0.442,0.99-0.129
						c1.058,0.395,1.258,0.513,1.327,0.675c0.731-0.045,2.527,0.304,0.264-0.444c0.167-0.322,1.369-0.057,2.93,0.392
						c1.542,0.492,3.433,1.191,5.017,1.654c2.275,1.354-2.795-0.323-4.173-0.472c1.179,0.39,2.246,0.46,3.873,1.264l-0.61,0.344
						c4.283,1.397,1.316,0.02,2.456-0.086c1.39-0.143,3.769,1.563,4.885,2.077l-1.278-0.448c3.059,1.694,4.059,1.436,6.817,2.957
						l1.109,1.054c-1.625-1.139-2.775-1.545-3.762-1.782c-0.999-0.222-1.813-0.321-2.774-0.92c4.95,2.883-1.561,0.44-3.379,0.208
						c2.306,0.852,4.247,1.907,5.33,2.708c1.708,0.498,3.352,1.371,4.901,2.31c1.543,0.954,3.088,1.854,4.685,2.449
						c1.483,1.084-1.553-0.565,0.061,0.508c2.919,2.005,5.945,4.156,8.647,6.527c1.255,1.354,0.823,1.306,0.999,1.827
						c2.677,3.382,4.152,5.759,5.116,8.391c0.178,0.664,0.491,1.328,0.569,2.044c0.066,0.357,0.133,0.721,0.202,1.094
						c0.016,0.377,0.033,0.763,0.05,1.16c0.001,1.586-0.191,3.408-1.108,5.434l0.144-1.303c-0.164,0.421-0.322,0.827-0.472,1.212
						c-0.155,0.384-0.358,0.735-0.497,1.075c-0.265,0.687-0.546,1.262-0.613,1.771c-0.958,0.813-2.035,2.532-3.424,4.264
						c-1.353,1.746-3.17,3.35-4.746,3.98c-0.916,0.589-1.562,1.099-2.106,1.521c-0.554,0.411-0.966,0.777-1.352,1.139
						c-0.377,0.372-0.762,0.691-1.221,1.061c-0.468,0.354-0.991,0.792-1.775,1.201c-0.094-0.19,0.67-1.01-0.988-0.291
						c-2.517,1.335-5.092,2.472-7.744,3.358c-2.647,0.894-5.339,1.652-8.12,2.15c-5.546,1.054-11.407,1.372-17.695,0.616
						c0.116-0.067,0.758-0.061,1.076-0.056c-4.057-0.545-8.046-1.205-11.175-2.646c-1.587-0.692-2.853-1.617-3.828-2.616
						c-0.984-1.004-1.445-2.183-1.631-3.369c-0.19-0.417-0.33-1.354-0.396-2.128c-0.021-0.777-0.121-1.357-0.346-0.896
						c-0.209,1.313-0.621,1.495-0.919,1.406c-0.066-0.666,0.03-1.233,0.041-1.688c0.059-0.457,0.18-0.814,0.256-1.094
						c0.085-0.279,0.166-0.483,0.243-0.64c0.099-0.156,0.19-0.266,0.278-0.359c0.175-0.188,0.338-0.314,0.524-0.616
						c0.098-0.15,0.182-0.347,0.311-0.613c0.142-0.264,0.303-0.601,0.489-1.044c0.574-0.393,0.43,0.211,0.22,0.917
						c-0.236,0.709-0.341,1.543-0.063,1.637c0,0,0.076-0.308,0.191-0.77c0.101-0.466,0.382-1.084,0.59-1.715
						c0.232-0.629,0.57-1.245,0.775-1.72c0.204-0.477,0.403-0.777,0.403-0.777c1.906-2.518,3.849-5.244,6.194-7.008
						c-0.979,0.846,0.077,0.681-1.63,1.988c0.207-0.251,0.018-0.131,0.222-0.383c-0.886,0.854-1.34,1.471-1.693,1.886
						c-0.346,0.42-0.498,0.695-0.629,0.962c-0.135,0.265-0.254,0.521-0.494,0.922c-0.258,0.395-0.584,0.954-1.117,1.828
						c0.865-1.567,2.26-3.305,3.678-4.952c1.497-1.604,3.083-3.089,4.462-4.132c-0.897,0.113,2.023-1.959,2.666-2.754l0.206-0.092
						c-0.063-0.085,0.322-0.481,0.786-0.915c0.47-0.426,1.044-0.86,1.302-1.08l1.075,0.021c1.233-0.931-0.539-0.02,0.703-0.938
						c0.894-0.642,2.999-2.028,5.063-3.096c2.058-1.074,4.023-1.882,4.412-1.713c2.394-1.175,2.937-1.854,5.538-2.846
						c-0.139,0.236-0.728,0.556-0.79,0.671c5.438-2.217,12.285-4.699,17.812-5.667c4.395-1.227,8.213-2.102,11.024-2.945
						c-1.214,0.204-4.773,0.75-2.626-0.026c1.172-0.488,3.084-0.664,4.958-1.085c-0.398,0.362,4.855-0.293,1.088,0.397
						c0.526,0.301,2.557-0.01,4.471-0.248c1.918-0.204,3.712-0.399,3.708-0.045c0.873-0.299,6.286-0.488,8.313-0.849
						c0.457,0.307-2.927,0.255-2.91,0.49c0,0,0.615-0.053,1.231-0.083c0.616-0.036,1.233-0.072,1.233-0.072l0.004,0.211
						c1.181,0.023,2.12-0.015,2.91-0.088c0.79-0.048,1.431-0.13,2.014-0.226c1.165-0.188,2.097-0.432,3.509-0.459l-0.113,0.076
						l1.917-0.014c0,0-0.567,0.113-1.135,0.227c-0.566,0.111-1.13,0.235-1.13,0.235c1.515,0.021,2.67-0.054,3.873-0.147
						c1.203-0.105,2.451-0.166,4.144-0.064l0.322,0.209l2.052-0.018c-0.348,0.002-0.47,0.074-0.254,0.142
						c0.987-0.208,2.566-0.059,4.134,0.052c1.57,0.107,3.119,0.258,4.045,0.193c1.334,0.298,2.354,1.128,4.214,0.977l-0.451,0.596
						c-4.468-0.615-1.583-0.762-6.321-1.207c0.844,0.301,2.071,0.683,3.548,1.024c1.48,0.325,3.196,0.701,5.004,1.097
						c1.809,0.396,3.72,0.755,5.556,1.21c1.84,0.439,3.644,0.793,5.216,1.237c5.276,0.801,13.273,4.336,15.726,4.172l-0.669,0.196
						c0,0,0.52,0.205,1.298,0.511c0.768,0.334,1.791,0.78,2.814,1.225c1.021,0.445,2.044,0.891,2.811,1.225
						c0.767,0.331,1.264,0.587,1.264,0.587c7.082,2.712,13.876,6.568,19.208,8.84l1.219,1.076c2.904,0.933,7.359,3.45,11.532,5.942
						c2.066,1.281,4.108,2.484,5.847,3.503c1.727,1.037,3.2,1.813,4.214,2.107c2.617,2.221-1.144-0.167-1.561-0.163
						c0.987,0.778,2.494,1.557,3.907,2.451c1.409,0.897,2.773,1.841,3.543,2.81c-0.128,0.167-2.938-1.972-1.743-0.908
						c1.217,1.409,2.321,1.264,3.696,2.852c-0.46-0.897,3.117,1.383,5.565,3.253c-0.431-0.369-0.431-0.369-0.588-0.559
						c-0.157-0.519,1.597,0.959,2.594,1.729c0.001,0-0.137-0.018-0.421-0.207c8.884,6.89,18.097,15.269,26.451,24.2l3,3.207
						l-1.166-4.243c-1.348-4.905-2.655-9.786-3.519-14.579c0.001,0,0.219,0.735,0.467,1.465c0.24,0.73,0.48,1.46,0.48,1.46
						c-0.799-2.271-1.397-6.438-1.477-7.773l0.083,0.334c-0.028-1.107-0.045-1.958-0.144-2.67c-0.094-0.712-0.232-1.285-0.319-1.831
						c-0.195-1.089-0.41-2.078-0.012-3.751l0.064,0.66c0.001-0.653,0.009-1.273,0.03-1.868c0.059-0.593,0.115-1.161,0.17-1.712
						c0.096-1.101,0.314-2.127,0.487-3.147c0.371-2.041,0.8-4.053,1.17-6.618c0.542-1.96,0.944-2.802,1.252-3.493
						c0.314-0.69,0.625-1.224,1.147-2.546c0.607-2.287,0.578-3.471,0.535-3.612l-0.366,1.085c-0.725,1.094,0.436-2.484,0.778-4.167
						c-0.917,1.031-1.617,0.088-3.567,4.569c-0.773,3.486-1.855,3.094-2.698,7.078c0.283,2.406-1.765,5.622-1.404,9.45
						c-0.395-2.044-0.575,4.449-0.95,1.124c-0.128,0.379-0.196,1.077-0.228,1.954c0.013,0.88,0.059,1.938,0.115,3.037
						c0.1,1.095,0.203,2.233,0.299,3.283c0.117,1.045,0.168,2.008,0.135,2.762c-0.179-0.463-0.284-0.334-0.428-1.031
						c0.383,2.055,0.457,2.753,0.396,3.353c-0.051,0.597-0.129,1.061,0.163,2.571l0.521-0.221c0.396,1.124,0.083,1.55,0.414,2.553
						c-0.134-0.818-0.208-2.593,0.192-1.73c0.412,1.349,0.854,2.442,1.193,3.909c-0.209,0.07-0.535-0.935-0.756-1.614
						c0,0,0.154,0.804,0.315,1.638c0.161,0.83,0.299,1.696,0.2,1.839c-0.463-1.086-0.819-2.556-1.342-3.508
						c0.817,4.257-0.109,0.384-0.041,2.538c0.485-0.724,1.172,3.568,1.931,5.755c-0.19,0.301-0.499-1.549-0.837-2.056
						c0.019,2.76,0.724,4.485,1.55,6.632c1.715-0.969,3.43-1.938,5.188-2.93c-1.164-0.988-2.465-2.11-3.972-3.805
						c0.138,0.026,0.671,0.48,0.939,0.712c-2.006-1.79-2.84-3.587-4.366-4.523c-1.759-1.87,0.181-0.85-2.675-3.603
						c0.369,1.3-3.243-3.362-3.846-2.873l-1.955-2.36c-2.242-1.523-0.288,1.37-4.19-2.112c-3.432-3.315,1.124-0.588-0.745-2.691
						l-1.145-0.468l-1.592-1.735l0.291,0.207c-1.15-0.814-3.011-2.579-2.899-2.727c0.293,0.007,1.446,1.007,1.718,1.023
						c-0.979-0.642-2.635-2.262-4.348-3.848c-1.714-1.583-3.498-3.114-4.821-3.405c-0.986-0.983-3.263-2.698-2.769-2.752
						c-1.254-0.415-4.965-3.801-6.67-4.619c0.29,0.01-1.001-1.235-2.239-1.926c1.447,1.229,0.393,0.673-0.828,0.197
						c-1.194-1.191-5.273-3.522-5.567-4.389c-2.377-1.085-1.78-0.246-2.482-0.195c-1.229-1.155-5.779-3.838-4.666-3.901
						c1.197,0.771,3.824,2.56,3.546,1.864c-2.188-1.614-1.095-0.457-3.032-1.557c0.205-0.021-1.121-1.093-0.652-1.046
						c-1.187-0.588-2.793-1.499-4.382-2.519c2.421,1.701-1.859-0.522-0.444,0.572l2.688,0.971c2.998,1.652,0.447,0.663,1.494,1.441
						c-5.298-2.823-4.559-1.713-9.696-4.013c-0.887-0.577-2.458-1.626-2.995-1.874c1.7,0.795,1.641,0.11,0.738-0.478
						c-3.079-0.881-4.942-2.759-7.288-3.895c2.007,1.028,0.757,0.912-0.055,0.721c-5.108-1.82-1.856-1.051-3.918-2.244
						c-1.917-0.835-3.702-1.5-5.334-2.222c-0.819-0.354-1.61-0.696-2.382-1.03c-0.781-0.313-1.542-0.617-2.291-0.917
						c-1.503-0.587-2.946-1.193-4.45-1.681c-1.506-0.485-3.042-0.934-4.681-1.336l2.884,1.479l1.173-0.182
						c2.249,1.127-0.804,0.978-2.243,0.887c-0.287-0.277-4.249-1.405-2.596-1.199c0,0-0.244-0.058-0.609-0.146
						c-0.368-0.078-0.858-0.182-1.35-0.287c-0.98-0.208-1.961-0.416-1.961-0.416c0.516,0.377,3.033,0.961,1.168,0.707
						c-1.221-0.501-5.154-1.689-2.586-1.312c-2.036-0.585-4.729-0.966-4.338-0.577c-3.322-0.745,0.49-0.572,2.031-0.428
						c-2.63-0.649-2.19-1.013-1.355-0.969c0,0-0.924-0.199-1.849-0.399c-0.924-0.201-1.851-0.389-1.851-0.389
						c0.837,0.026,0.879-0.167,1.713-0.127c-2.39-0.767-4.267-0.47-6.271-1.333l-1.014,0.252c-6.734-1.461-6.037-1.422-12.421-2.213
						c0,0,0.259,0.104,0.518,0.209c0.258,0.113,0.516,0.227,0.516,0.227c-2.449,0.045-3.322-0.138-4.405-0.414
						c-0.542-0.131-1.134-0.29-2.003-0.413c-0.87-0.106-2.016-0.189-3.656-0.213c-1.847-0.02-3.37,0.07-4.368,0.175
						c-0.999,0.11-1.473,0.27-1.234,0.535c-2.125,0.146-2.608-0.122-3.57-0.306c-0.827,0.162-2.125,0.394-3.54,0.552
						c-1.415,0.202-2.946,0.34-4.258,0.247c1.762-0.248,3.178-0.486,4.837-0.613c-0.25-0.271-1.679-0.223-3.386-0.124
						c-0.853,0.05-1.777,0.104-2.658,0.156c-0.88,0.073-1.718,0.127-2.405,0.126c-1.891,0.361-7.962,1.718-11.248,2.77
						c1.599,0.188,1.098,0.853-1.819,1.804c0.404-0.392-4.104,0.412-6.198,0.718c0.958-0.537-4.787,0.321-0.449-0.813
						c1.31-0.119,1.972,0.125,3.681-0.356c-0.557-0.066-1.551-0.042-2.772,0.075c-1.22,0.121-2.688,0.238-4.156,0.495
						c0.176-0.231,1.635-0.807,3.146-1.143C418.513,261.886,419.013,261.872,419.158,261.973z"/>
					<path fill="#1D1D1D" d="M213.118,232.812c0.158,0.008,0.31,0.017,0.468,0.025l-0.574-0.125
						C213.203,232.754,213.202,232.786,213.118,232.812z"/>
					<path fill="#1D1D1D" d="M373.3,323.145c0.252,0.062,0.729,0.14,0.758,0.08C373.739,323.164,373.455,323.122,373.3,323.145z"/>
					<path fill="#1D1D1D" d="M436.123,308.144c-0.086,0.022-0.129,0.001-0.183-0.007C435.925,308.2,435.964,308.219,436.123,308.144
						z"/>
					<path fill="#1D1D1D" d="M209.082,229.107l1.122-0.1C209.795,229.003,209.604,229.06,209.082,229.107z"/>
				</g>
			</g>
		</g>
	</g>
</g>
<g>
	<g>
		<g>
			<g>
				<g>
					<path fill="#1D1D1D" d="M599.864,334.31l-0.135-0.043C599.735,334.286,599.771,334.302,599.864,334.31z"/>
					<path fill="#1D1D1D" d="M599.898,334.573l0.01,0.007C599.91,334.57,599.906,334.569,599.898,334.573z"/>
					<path fill="#1D1D1D" d="M556.482,329.115c-0.044,0.026-0.08,0.057-0.095,0.098
						C556.453,329.186,556.479,329.151,556.482,329.115z"/>
					<path fill="#1D1D1D" d="M564.216,323.685c-0.002,0.025-0.005,0.046-0.007,0.066
						C564.223,323.734,564.227,323.713,564.216,323.685z"/>
					<path fill="#1D1D1D" d="M598.285,333.812l0.054,0.04C598.372,333.802,598.313,333.784,598.285,333.812z"/>
					<path fill="#1D1D1D" d="M554.469,329.368c-0.002,0.02-0.002,0.04,0.001,0.065C554.473,329.407,554.471,329.388,554.469,329.368
						z"/>
					<path fill="#1D1D1D" d="M593.908,330.944c-0.021,0.004-0.043,0.002-0.064,0.001
						C593.863,330.954,593.886,330.956,593.908,330.944z"/>
					<path fill="#1D1D1D" d="M565.746,328.529c0.029-0.024,0.046-0.049,0.055-0.074C565.769,328.468,565.745,328.49,565.746,328.529
						z"/>
					<path fill="#1D1D1D" d="M565.803,327.88c-0.41,0.161,0.068,0.381-0.002,0.575c0.108-0.047,0.332,0.006,0.233-0.152
						c0.185,0.412,0.646-0.179,0.851,0.153c0.013-0.039-0.108-0.178,0.056-0.266c0.237-0.024,0.205,0.16,0.294,0.247
						c0.078-0.109,0.442-0.167,0.402-0.113c0.166-0.087-0.131-0.4,0.105-0.557c0.175-0.262,0.356-0.014,0.539-0.06
						c0.191,0.216-0.225,0.101-0.321,0.181l0.61-0.042c0.16,0.161-0.108,0.248-0.279,0.192c0.218,0.202,0.54,0.089,0.638-0.119
						c0.144,0.068,0.229,0.029,0.357,0.138c-0.155,0.103-0.195,0.483-0.419,0.519c-0.354-0.072,0.165-0.273-0.133-0.371
						l-0.053,0.224c-0.115-0.147-0.239,0.009-0.38,0.006c-0.072-0.067,0.025-0.079,0.082-0.104
						c-0.255-0.016-0.444-0.173-0.659,0.081c0.316,0.229,0.858,0.035,0.976,0.308l0.716-0.225c0.015-0.105-0.2-0.306,0.013-0.434
						c0.044,0.277,0.228,0.426,0.482,0.508c-0.056-0.303,0.457-0.202,0.36-0.453c-0.145,0.129-0.17-0.121-0.185-0.147
						c0.259,0.018,0.074-0.262,0.218-0.258c0.46,0.127-0.045,0.183,0.398,0.348c-0.118,0.116-0.409,0.373-0.679,0.461
						c-0.001,0.131,0.255,0.017,0.338,0.176c-0.125-0.172,0.146-0.259,0.034-0.341c0.386-0.08,0.867-0.305,1.327-0.273
						c-0.146,0.412-0.81,0.174-0.755,0.707c0.228-0.021,0.264-0.229,0.433-0.163c0.103,0.285,0.507,0.132,0.806,0.183l-0.106-0.154
						c0.133-0.082,0.327,0.039,0.453,0.089l-0.045,0.05l0.146-0.055c0.018,0.015,0.02,0.029,0.017,0.045
						c0.169-0.104,0.507,0.094,0.796,0.072c0.044-0.207-0.27-0.062-0.395-0.111c-0.026-0.054-0.262-0.191-0.11-0.311
						c0.342,0.065,0.632-0.135,1.02-0.052l-0.11-0.087c0.155-0.117,0.309-0.02,0.494,0.021c0.302,0.226-0.311,0.226-0.135,0.396
						c-0.171,0.145-0.354-0.099-0.446,0.154l0.146,0.328c0.214-0.139,0.346,0.176,0.476,0.165l-0.102-0.159
						c0.077-0.216,0.16-0.019,0.214,0.027l-0.013-0.347c-0.179-0.103-0.374,0.146-0.471-0.072c0.363-0.024,0.345-0.303,0.758-0.209
						c-0.011,0.132-0.09,0.027-0.154,0.112c0.119,0.122,0.329-0.103,0.532,0.057c-0.149,0.047-0.39,0.122-0.265,0.337l0.181-0.214
						c0.095,0.064,0.029,0.149,0.07,0.168c0.138,0.084,0.026-0.263,0.247-0.141c0.023,0.057,0.089,0.132,0.041,0.178
						c0.268,0.076,0.149-0.047,0.432-0.102c-0.227-0.057-0.144-0.43,0.104-0.411c0.324,0.123,0.606-0.025,0.756,0.339l0.191-0.121
						c-0.157,0.205,0.19,0.132,0.286,0.197c-0.033,0.261-0.5-0.132-0.607,0.277c0.208,0.094,0.079,0.196-0.02,0.288
						c0.246,0.021,0.164-0.269,0.313-0.408c-0.026,0.103,0.396,0.132,0.196,0.317c0.196,0.063,0.302-0.184,0.437-0.093
						c-0.05,0.094-0.111,0.215-0.133,0.348c0.041-0.079,0.201,0.08,0.235,0.099c-0.021-0.058,0.128-0.192-0.065-0.173
						c0.098-0.184,0.411,0.112,0.448-0.056c-0.046,0.232,0.36,0.157,0.517,0.305c0.135-0.538-0.396,0.104-0.333-0.353
						c0.295-0.109,0.823,0.224,1.285,0.104c0.31,0.201-0.061,0.203-0.05,0.419c-0.338-0.006-0.37-0.186-0.668-0.17
						c0.27,0.18,0.771,0.267,1.038,0.167c0.33,0.071,0.196,0.634,0.627,0.615c0.001-0.185,0.021-0.222-0.081-0.32
						c0.123-0.03,0.227,0.063,0.339,0.103c0.103-0.086-0.133-0.188,0.053-0.231c0.051,0.052,0.173,0.118,0.111,0.226l-0.031,0.007
						c0.422-0.033,0.139,0.5,0.562,0.279c0.001-0.094-0.103-0.009-0.163-0.089c-0.019-0.151,0.238-0.272,0.405-0.278
						c-0.064,0.108,0.122,0.065,0.214,0.139c0.007,0.217-0.278-0.03-0.372,0.084l0.276,0.124l-0.051-0.05l0.372-0.084
						c-0.237-0.01-0.027-0.274,0.076-0.267c0.205,0.109,0.409,0.22,0.313,0.428c0.097-0.208,0.363-0.111,0.57-0.096
						c-0.183-0.146,0.035-0.194,0.119-0.244l0.241,0.318c-0.351-0.046,0.005,0.217-0.122,0.338
						c-0.171,0.193-0.331,0.013-0.494-0.075c0.204,0.512,0.549-0.061,0.779,0.229c-0.034,0.1-0.1,0.207-0.221,0.143
						c0.028,0.085,0.334-0.105,0.493,0.075c-0.028-0.087-0.073-0.324,0.155-0.344l0.176,0.334c0.283,0.161,0.193-0.225,0.483-0.251
						l-0.105-0.229c0.101-0.207,0.337,0.12,0.429-0.115c-0.153-0.063-0.305,0.091-0.444-0.036c0.019-0.254,0.251-0.05,0.388-0.141
						c0.304,0.221,0.231,0.204,0.419,0.478c-0.117,0.364-0.57,0.299-0.681,0.788c0.349,0.054,0.864,0.106,1.03,0.32
						c0.331-0.003,0.405-0.297,0.436-0.52c0.136,0.005,0.185,0.058,0.243,0.138l-0.179,0.067c0.403,0.013,0.655-0.037,1.033,0.106
						c0.238,0.015,0.229-0.231,0.238-0.418l0.248,0.044l-0.019-0.058c0.136-0.21,0.316-0.063,0.469,0.004
						c-0.036,0.1-0.14,0.088-0.153,0.152c0.107,0.135,0.323,0.189,0.472,0.131c-0.036,0.1-0.212,0.286-0.351,0.156
						c-0.009-0.029,0.014-0.063,0.005-0.094l-0.324,0.028c0.364-0.006,0.462,0.319,0.367,0.553c0.363-0.004-0.17-0.341,0.243-0.291
						c0.328,0.651,0.997,0.223,1.026,0.99c0.283-0.052,0.645-0.179,1.013-0.059c0.074-0.198,0.271,0.015,0.327-0.243
						c-0.249-0.388-0.789,0.141-0.93-0.328c-0.188,0.033-0.199,0.221-0.309,0.302c-0.143-0.035-0.264-0.106-0.236-0.235
						c0.364-0.004,0.265-0.449,0.673-0.306c0.012-0.188-0.341-0.249-0.47-0.349c0.077-0.076,0.072-0.199,0.006-0.311
						c0.163-0.122,0.447-0.173,0.62-0.266c-0.077,0.076-0.019,0.159-0.074,0.199l0.53-0.124c0.084,0.17,0.065,0.328-0.045,0.409
						c0.212,0.147,0.709,0.029,0.599,0.326c0.319,0.067-0.03-0.211-0.024-0.305l0.031-0.005l-0.328-0.097
						c0.093-0.356,0.332,0.22,0.507-0.09c0.286-0.605,0.377,0.366,0.639,0.352l-0.43,0.353l0.263-0.015
						c-0.196,0.126-0.309,0.423-0.575,0.532c0.305,0.129,0.693,0.434,0.923,0.427c0.02,0.182-0.002,0.34-0.094,0.479
						c0.418-0.163,0.427,0.329,0.691,0.439c0.347-0.06-0.197-0.338,0.093-0.479c0.043,0.147,0.232,0.115,0.327,0.1
						c-0.117,0.051-0.361-0.217-0.539-0.373c0.152,0.068,0.22-0.159,0.297-0.234l-0.241-0.146c0.122-0.267,0.327,0.101,0.5,0.009
						c-0.17,0.214-0.13,0.238-0.3,0.452c0.262-0.013,0.598,0.116,0.729,0.34c0.074,0.142-0.142,0.086-0.228,0.131
						c-0.013,0.188,0.261-0.014,0.226,0.21c-0.093,0.139-0.144-0.038-0.238-0.022l0.624,0.327c-0.037,0.098-0.212,0.066-0.301-0.012
						c0.154,0.19,0.321,0.192,0.682-0.054c0.186,0.186,0.388,0.428,0.256,0.543c0.127-0.021,0.093-0.139,0.131-0.238
						c0.28,0.169,0.449-0.168,0.633-0.105l-0.066-0.235c0.219,0.302,0.186-0.278,0.388-0.034c-0.116,0.174-0.184,0.4-0.22,0.622
						c0.116-0.173,0.216,0.058,0.327,0.101c0.004-0.217,0.308-0.082,0.2-0.342c0.318-0.053,0.338,0.253,0.622,0.083
						c-0.097-0.107,0.3-0.111,0.249-0.288c0.256,0.082,0.34,0.376,0.192,0.556c-0.081-0.049-0.187-0.187-0.239-0.023l0.471,0.139
						c0.074,0.143,0.203,0.243,0.136,0.471c0.242-0.194,0.362,0.342,0.589,0.088c-0.229,0.131-0.25-0.175-0.297-0.229l0.087-0.014
						c-0.011-0.005-0.021-0.013-0.032-0.026l0.344-0.304c-0.131-0.224-0.131,0.237-0.396,0.127c-0.094-0.446,0.733-0.336,0.578-0.65
						c-0.154-0.19-0.252,0.165-0.465,0.231l0.039,0.024l-0.429,0.009c0.03-0.128,0.181-0.185,0.181-0.185
						c-0.448-0.173-0.444-0.39-0.909-0.621c0.018,0.06-0.032,0.468-0.271,0.446c-0.189,0.031-0.122-0.196-0.242-0.27
						c0.095-0.015,0.243-0.194,0.293-0.017l0.092-0.262c0.481-0.172,0.39-0.496,0.915-0.397c0.096-0.181,0.489-0.142,0.734,0.018
						l-0.063-0.221c0.4-0.22-0.052,0.286,0.407,0.148c0.015,0.398,0.127,0.904-0.181,1.109c0.219,0.18,0.374,0.03,0.599,0.117
						c0.029,0.335-0.187,0.278-0.27,0.568c0.177,0.033,0.43-0.009,0.37-0.215l0.267,0.233c-0.015,0.063-0.126,0.021-0.167-0.003
						c0.097,0.107,0.382,0.061,0.492-0.02c-0.031,0.005-0.128,0.021-0.144-0.038c0.158-0.025,0.443-0.073,0.49-0.143
						c-0.245,0.071-0.139-0.255-0.407-0.148c0.046-0.069,0.139-0.208,0.228-0.131c-0.099-0.23-0.274-0.263-0.27-0.479
						c0.083,0.196,0.251,0.024,0.292,0.006c-0.103-0.103-0.37-0.146-0.484-0.098c0.105-0.325-0.503-0.133-0.213-0.396
						c-0.07,0.104-0.254,0.041-0.32-0.071c0.063-0.135,0.332-0.116,0.497-0.236c0.542,0.034-0.1,0.231-0.025,0.375l0.377,0.119
						c-0.02-0.061,0.233-0.165-0.014-0.241c0.188-0.154,0.474-0.201,0.604,0.024c0.079-0.076-0.065-0.113-0.105-0.138
						c0.078-0.074,0.44-0.319,0.159-0.488c0.08,0.048-0.205,0.095-0.091,0.262c-0.136-0.009-0.41-0.271-0.213-0.397
						c-0.167-0.003-0.493,0.02-0.628,0.012c0.021-0.158,0.127-0.021,0.214-0.066l-0.455-0.079l0.059,0.206
						c-0.266-0.234-0.61,0.069-0.904,0.088c0.132-0.238,0.348-0.181,0.561-0.247c-0.038-0.364-0.164,0.119-0.405-0.026
						c-0.018-0.059-0.003-0.123,0.044-0.192l-0.291,0.141c-0.049-0.053,0.006-0.094,0.038-0.099c-0.459,0.137-0.13,0.36-0.647,0.292
						c0.235,0.238,0.31-0.082,0.541,0.034c0.068,0.236-0.401,0.22-0.512,0.299c-0.208-0.149-0.088-0.539-0.46-0.447
						c0.253-0.042,0.1-0.232,0.396-0.127c0.213-0.066-0.043-0.147-0.021-0.305c-0.095,0.016-0.051,0.285-0.252,0.164l0.023-0.034
						l-0.458,0.137c-0.275-0.264-0.857,0.019-0.969-0.363l-0.051,0.285c-0.216-0.057-0.513-0.16-0.68-0.163
						c0.093-0.14,0.237-0.102,0.404-0.099c-0.354-0.188-0.743-0.154-1.075-0.036c0.108,0.26,0.141,0.254,0.264,0.449
						c-0.384,0.279-0.197-0.338-0.578-0.274c0.09-0.262,0.18-0.184,0.198-0.465c-0.197,0.126-0.398,0.006-0.604,0.102
						c0.019-0.281,0.237-0.441,0.565-0.343c0.158,0.314,0.574,0.028,0.691,0.317l-0.06-0.207c0.271,0.018,0.4,0.119,0.654,0.077
						l-0.023,0.035l0.203-0.219l-0.112-0.043c0.134-0.116,0.458-0.262,0.529-0.243c-0.361-0.094-0.544,0.307-0.796,0.473
						c-0.305-0.135-0.252-0.638-0.544-0.496c0.03-0.129-0.094-0.325,0.089-0.385c0.198-0.003,0.259,0.203,0.343,0.034
						c-0.185-0.062-0.074-0.142-0.362-0.217c-0.141,0.209-0.432,0.351-0.699,0.457c-0.255,0.042-0.52-0.068-0.658-0.2
						c0.217,0.057,0.508-0.085,0.52-0.272c-0.211,0.19-0.333-0.345-0.397,0.005c-0.233-0.114-0.643-0.263-0.563-0.554
						c0.27-0.018,0.426,0.239,0.643,0.253c-0.051-0.027-0.076-0.118-0.02-0.173l0.274,0.141c-0.164-0.22-0.086-0.295-0.375-0.37
						c0.009,0.029,0.026,0.088-0.005,0.093c-0.072-0.019-0.153-0.066-0.227-0.085l0.091-0.263c-0.255,0.043-0.526-0.439-0.983-0.391
						l0.055-0.041c-0.285-0.167-0.504,0.334-0.857,0.272c0.142-0.086,0.138-0.21,0.166-0.338c-0.214,0.068-0.222-0.178-0.361-0.309
						c0.135,0.224-0.233,0.226-0.125,0.361c-0.088,0.264-0.429,0.137-0.591,0.042c0.021-0.375,0.608,0.018,0.475-0.423
						c-0.163-0.096-0.277,0.078-0.178,0.186c-0.204-0.12-0.521-0.281-0.603-0.546c-0.354,0.155-0.408-0.021-0.695,0.245
						c0.146,0.037,0.241-0.197,0.368-0.002l-0.282,0.173c-0.258-0.078-0.38-0.367-0.543-0.462l0.223-0.04l-0.023,0.036
						c0.109-0.082,0.322,0.067,0.363-0.125c-0.25,0.167-0.3-0.104-0.576-0.024l0.022-0.035c-0.451,0.047-0.53-0.617-0.948-0.229
						c0.073,0.017,0.147,0.251,0.07,0.326c-0.047-0.146-0.298-0.191-0.24-0.326l0.097-0.019c-0.207-0.115-0.331-0.186-0.427-0.168
						c-0.122,0.147-0.106,0.3-0.299,0.336c-0.349-0.244,0.298-0.336,0.087-0.575l-0.425,0.049l-0.025-0.182
						c-0.483-0.344-1.076,0.018-1.647-0.185c0.081-0.266,0.533-0.227,0.68-0.192c-0.097-0.294-0.462-0.068-0.644-0.314
						c-0.207-0.118-0.456,0.058-0.471,0.217c-0.308,0.002-0.145-0.219-0.164-0.276c-0.187,0.256-0.5,0.04-0.744,0.03l0.044-0.165
						l-0.414,0.086c0.084,0.046-0.045,0.165-0.078,0.266l-0.084-0.044c0.192,0.552,0.869-0.058,1.048,0.558
						c-0.127,0.027-0.014,0.159-0.142,0.186c-0.083-0.045-0.093-0.074-0.081-0.139c-0.098,0.113-0.278,0.184-0.09,0.236
						c-0.123,0.337-0.467,0.13-0.762,0.162c-0.131-0.284,0.321-0.256,0.481-0.383c-0.105-0.009-0.234,0.112-0.348-0.02l0.119-0.243
						c-0.4,0.022-0.171,0.191-0.333,0.413c-0.204,0.293-0.313-0.119-0.419-0.128l0.127-0.027c-0.239-0.199-0.39,0.053-0.63-0.052
						l-0.05-0.24c0.228,0.358,0.496-0.231,0.632-0.042c-0.375-0.389,0.269-0.494,0.483-0.664c-0.212-0.018-0.38-0.106-0.441-0.281
						c-0.395,0.239-0.561-0.32-0.963-0.015c-0.137-0.097,0.19-0.136,0.032-0.195c-0.285-0.126-0.61-0.188-0.976-0.13
						c-0.161-0.056-0.098-0.164-0.11-0.286c-0.745-0.388-1.235,0.139-2.053-0.261l0.167-0.104c-0.172-0.084-0.313-0.177-0.456-0.014
						c-0.104-0.515-0.844,0.044-1.013-0.501c-0.366-0.184-0.486,0.197-0.808,0.193c0.025-0.104,0.168-0.271,0.021-0.356
						c-1.044-0.073-1.926-0.316-3.068-0.435c0.018-0.038,0.081-0.059,0.112-0.069c-0.718-0.182-1.513,0.118-2.083-0.143
						c-0.125,0.043-0.476,0.065-0.404,0.271c0.135,0.052,0.114,0.287,0.08,0.43c-0.562,0.1-0.201-0.392-0.57-0.377
						c-0.056-0.369,0.265-0.203,0.317-0.517l-0.559,0.154c-0.277-0.151-0.601,0.01-0.833-0.193c0.108,0.055,0.075-0.261,0.246-0.099
						c-0.031,0.012-0.015,0.038-0.046,0.052c0.433,0.09,0.263-0.139,0.667-0.166c-0.358,0.043-0.837,0.068-1.133-0.045
						c0.035,0.251-0.261,0.071-0.366,0.214l-0.016-0.026c-0.014,0.104-0.211,0.152-0.272,0.177l-0.039-0.317
						c-0.138,0.022,0.02,0.159-0.118,0.181c-0.197,0.051-0.87-0.015-0.889-0.332c-0.234,0.009-0.317,0.183-0.554,0.126
						c0.026-0.079,0.087-0.108,0.1-0.147c-0.506-0.099-1.138-0.035-1.611-0.252c-0.399,0.056-0.739,0.083-0.994,0.279
						c0.105-0.018,0.41,0.075,0.212,0.241c-0.109,0.128-0.269,0.056-0.433,0.119c0.042-0.162-0.41-0.149-0.081-0.266
						c-0.075-0.354-0.706,0.076-0.698-0.277c-0.077,0.109-0.545,0.051-0.717,0.242c-0.041-0.154,0.25-0.108,0.249-0.215
						l-0.212,0.052l-0.001-0.105c-0.41-0.086-0.478,0.348-0.716,0.416l0.009-0.042l-0.162,0.059l0.185-0.287
						c-0.26,0.045-0.386,0.299-0.671,0.359l-0.032-0.09l-0.169,0.101c0.028-0.017,0.036-0.058,0.017-0.082
						c-0.15,0.269-0.527,0.208-0.664,0.445c-0.116-0.029-0.236-0.354-0.372-0.112l0.004-0.336c0.381-0.075,0.159,0.223,0.554,0.063
						c-0.323-0.403-1.165-0.277-1.721-0.193c-0.426,0.269-1.218-0.041-1.337,0.504l0.019-0.21l-0.777-0.036
						c-0.625,0.194-1.313,0.16-1.744,0.518l-0.168-0.143c-0.39,0.616-1.63,0.653-1.782,1.385c-0.313-0.076,0.016-0.273,0.014-0.399
						c-0.22,0-0.441,0.522-0.716,0.275c-0.028-0.102,0.26-0.171,0.113-0.199c-0.2-0.149-0.159,0.244-0.386,0.077
						c0.129,0.177-0.146,0.494-0.379,0.598c0.048-0.004,0.048-0.004,0.074,0.015c0.079,0.139-0.112,0.156-0.205,0.206
						c0,0-0.002-0.041,0.02-0.064c-1.162,0.666-2.52,1.25-3.856,1.58l0.176-0.237c-0.138,0.185-0.485,0.249-0.604,0.257l0.02-0.026
						c-0.459-0.146-0.257,0.45-0.658,0.227l0.038-0.053c-0.399,0.186-0.78-0.021-1.104,0.317c-0.362,0.026-0.396-0.137-0.676-0.174
						c-0.18,0.088-0.181,0.303-0.173,0.344l0.094-0.023c0.175,0.127-0.123,0.223-0.217,0.354c0.221,0.223,0.369,0.655,0.854,0.771
						c0.221-0.204,0.453,0.316,0.725,0.144c0.007-0.43,0.538,0.083,0.663-0.354c-0.034,0.309,0.376-0.005,0.261,0.366
						c0.191,0.147,0.474-0.459,0.781-0.318c-0.012,0.068,0.021,0.124-0.016,0.177c0.23-0.271,0.271,0.085,0.484-0.01l-0.112-0.252
						c0.049-0.12,0.147,0.05,0.203-0.027c-0.07-0.005-0.243-0.071-0.221-0.205c0.075-0.105,0.126-0.226,0.233-0.272
						c0.041,0.098-0.017,0.176-0.055,0.229c0,0,0.242-0.081,0.308,0.035c-0.052,0.117-0.158,0.166-0.174,0.342
						c0.335-0.059,0.058,0.072,0.287,0.211c-0.164-0.291,0.217-0.232,0.359-0.357c0.064,0.115-0.104,0.08-0.11,0.186
						c0.525,0.42,0.444-0.26,0.901-0.292c0.006,0.041-0.033,0.09-0.054,0.114c0.164-0.153,0.4,0.083,0.463-0.138
						c0.204-0.012,0.156,0.334,0.437,0.226c-0.191-0.286,0.354-0.057,0.247-0.398l0.285,0.123c0.132-0.254-0.24-0.554,0.131-0.72
						c0.386,0.002,0.146,0.571,0.402,0.677l0.025-0.216l0.208,0.073l-0.021,0.024c0.081-0.099,0.286-0.087,0.316,0.012
						c0.007,0.083-0.104,0.111-0.096,0.194c0.119-0.217,0.801,0.293,0.83-0.271c0.125,0.065,0.329,0.01,0.348,0.181
						c0.028-0.253,0.466-0.046,0.561-0.228c0.003,0.083,0.161,0.176,0.246,0.087c-0.156-0.052-0.094-0.16-0.033-0.312
						c0.159,0.135,0.462-0.098,0.577,0.166c0.149-0.201,0.037-0.381,0.032-0.591c0.156,0.127,0.533,0.012,0.535,0.35
						c-0.112-0.027-0.354-0.026-0.263,0.176c0.219,0.068,0.063-0.115,0.218-0.176c0.001,0.06,0.152,0.177,0.141,0.274
						c0.087-0.051,0.221-0.071,0.367-0.041c-0.241-0.107,0.09-0.247-0.063-0.353l-0.156,0.268c-0.243,0.059-0.089-0.166-0.199-0.23
						c0.422-0.141,0.269-0.452,0.654-0.678c0.089,0.042,0.244,0.105,0.289,0.106c-0.136,0.04-0.053,0.332,0.035,0.374
						c0.185-0.29,0.438,0.086,0.634,0.109c-0.174-0.043-0.122-0.25-0.074-0.334c0.365-0.247,0.174,0.085,0.366,0.19
						c0.601-0.148,1.033,0.177,1.497-0.056l-0.266-0.255l-0.045,0.266c-0.206-0.186-0.04-0.584,0.045-0.764
						c0.038,0.087,0.338,0.01,0.232,0.167l0.284-0.141c-0.056-0.109-0.244-0.043-0.118-0.178c0.108,0.072,0.419,0.102,0.243,0.272
						c0.157-0.006,0.349-0.113,0.3-0.265c0.252-0.039,0.004,0.335-0.097,0.451c0.2-0.003,0.195,0.227,0.143,0.305l0.271-0.058
						c-0.054,0.078-0.044,0.184-0.097,0.262c0.188,0.081,0.291-0.223,0.462-0.018l0.052-0.227c0.511,0.135,0.459,0.165,0.923,0.155
						l-0.086-0.161c0.34-0.299,0.271,0.258,0.737,0.131c0.263-0.101,0.436-0.176,0.395-0.437c0.154-0.1,0.192,0.056,0.264,0.152
						c0.118-0.147,0.379-0.42,0.571-0.26c-0.131,0.083-0.234,0.149-0.355,0.192c0.036,0.26,0.415,0.052,0.613,0.172
						c0.139-0.119,0.596-0.46,0.859-0.667c-0.108-0.22-0.057-0.526,0.185-0.724c-0.042,0.161,0.308,0.185,0.461,0.31
						c-0.085,0.148,0.336,0.403-0.002,0.447c-0.093-0.087-0.128-0.311-0.265-0.237c0.073,0.168,0.277,0.369,0.488,0.53
						c-0.021,0.08-0.141,0.178-0.254,0.17C565.842,327.998,565.809,327.946,565.803,327.88z"/>
					<path fill="#1D1D1D" d="M598.285,333.812l-0.031-0.023l0.021,0.073C598.269,333.836,598.274,333.821,598.285,333.812z"/>
					<path fill="#1D1D1D" d="M572.605,328.852c0.02-0.008,0.059-0.038,0.065-0.07C572.646,328.798,572.621,328.818,572.605,328.852z
						"/>
					<path fill="#1D1D1D" d="M577.389,329.795l0.01-0.068C577.391,329.741,577.386,329.762,577.389,329.795z"/>
					<path fill="#1D1D1D" d="M597.924,335.646l-0.103,0.018C597.852,335.676,597.876,335.654,597.924,335.646z"/>
				</g>
			</g>
		</g>
	</g>
</g>
</svg>
