<?xml version="1.0" encoding="utf-8"?>
<!-- Generator: Adobe Illustrator 15.0.0, SVG Export Plug-In . SVG Version: 6.00 Build 0)  -->
<!DOCTYPE svg PUBLIC "-//W3C//DTD SVG 1.1//EN" "http://www.w3.org/Graphics/SVG/1.1/DTD/svg11.dtd">
<svg version="1.1" id="Calque_1" xmlns="http://www.w3.org/2000/svg" xmlns:xlink="http://www.w3.org/1999/xlink" x="0px" y="0px"
	 width="785px" height="1080px" viewBox="0 0 785 1080" enable-background="new 0 0 785 1080" xml:space="preserve">
<path fill="#FFFFFF" d="M133.978,908.238c-2.058,6.407-3.026,13.432-2.431,20.283c0.567,6.851,2.71,13.428,5.962,18.93
	c3.236,5.529,7.472,9.999,11.912,13.432c4.447,3.45,9.087,5.902,13.439,7.76c7.383,2.887,15.527,3.806,23.305,2.503
	c7.789-1.271,15.112-4.799,21.126-9.924c1.506-1.28,2.941-2.649,4.294-4.105c0.682-0.728,1.317-1.46,2.008-2.276l2.145-2.408
	l8.56-9.557c5.729-6.372,11.522-12.763,17.374-19.166c23.41-25.613,47.788-51.419,72.912-76.931
	c25.121-25.514,50.994-50.73,77.324-75.203c26.324-24.479,53.121-48.197,79.918-70.863c21.486-19.697,48.257-44.653,49.375-51.82
	c8.936-6.705,18.434-14.607,28.611-23.9c5.084-4.648,10.332-9.648,15.672-15.048c5.331-5.399,10.775-11.202,16.007-17.476
	c-0.14-0.925-0.077,0.415,1.288,0.619c1.33,0.193,4.153-0.718,8.905-6.443c2.72-4.777,5.072-9.603,6.721-14.31
	c1.658-4.707,2.557-9.253,2.561-13.374c0.569-0.502,1.126-1.026,1.67-1.576c-0.861-2.9-1.364-6.667-2.758-11.374
	c-1.351-4.692-3.763-10.513-7.174-16.55c-3.378-6.028-7.591-12.178-11.776-17.444c-4.195-5.271-8.35-9.676-11.824-12.332
	l4.036-0.444c-11.323-12.079-24.807-27.212-38.027-41.637c-13.231-14.413-26.144-28.114-36.793-36.989
	c8.133,3.643-7.938-12.808-18.184-24.683l13.472,9.007c-13.92-13.952-9.371-15.739-23.29-30.333
	c-1.129-1.049-2.103-1.912-3.006-2.719c-1.302-0.124,2.522,5.236,5.566,9.957c-11.76-14.621-10.272-14.142-5.566-9.957
	c0.159,0.018,0.091-0.207,0.425-0.001c1.015,1.013,1.717,1.803,2.581,2.72c5.181,4.781,11.562,10.781,11.401,9.271
	c-6.422-9.428-11.235-13.797-15.842-18.094c-4.599-4.298-8.99-8.523-14.408-17.71l-1.905,3.922
	c-7.533-13.077-12.386-20.286-17.78-27.903c-5.378-7.622-11.303-15.648-20.634-30.495c-8.643-6.458-10.66-2.542-22.16-15.117
	c-1.489-4.767,2.273-4.395-12.462-21.98c-1.941-0.199,2.471,6.583,5.597,12.087c-14.003-17.202-29.644-36.813-44.731-57.123
	c-15.096-20.303-29.641-41.299-41.637-61.072c7.751,9.537,7.204,6.977,5.145,2.184l-1.713-3.867l-0.44-0.991
	c-0.084-0.18-0.12-0.292-0.24-0.524l-0.324-0.651c-0.226-0.431-0.377-0.85-0.551-1.259l-0.123-0.304l-0.063-0.201l-0.115-0.375
	c-0.597-1.96-0.931-3.356-0.123-3.196c-3.829-5.218-8.454-9.608-13.62-12.809c-5.152-3.208-10.856-5.209-16.528-5.796
	c2.408-0.031,5.73,0.375,9.518,1.622c3.782,1.239,8.006,3.343,12.084,6.402c4.089,3.041,8.002,7.033,11.39,11.588l0.633,0.862
	c0.289,0.417,0.545,0.835,0.866,1.245l0.858,1.102l0.759,0.95l3.034,3.754c2.021,2.473,4.032,4.88,6.01,7.178
	c-1.396-5.342,1.844-4.25,4.445-3.729c-6.311-9.205-12.711-18.642-19.201-28.325c-0.118-0.206-0.243-0.4-0.362-0.604
	c-4.197-4.431-9.9-8.292-16.978-11.118c0.837-0.755,4.481-0.027,7.625,0.964c1.026,0.309,2,0.628,2.826,0.863
	c-1.096-1.312-2.222-2.558-3.377-3.74c-4.871-2.278-9.268-3.168-12.56-3.378c-4.591-0.279-7.225,0.568-7.942,1.195
	c-1.164-0.527-0.408-1.03-0.632-1.62c-0.115-0.292-0.482-0.611-1.504-0.927c-1.021-0.303-2.701-0.625-5.444-0.665
	c-6.387,0.318-10.362,1.852-12.66,3.048c-2.308,1.251-3.021,2.262-3.059,2.953c-0.036,1.38,2.515,1.844,2.22,2.758
	c-2.508,0.577-5.372,1.263-8.43,2.522c-3.036,1.262-6.272,3.122-9.152,5.888c-2.876,2.745-5.374,6.399-6.813,10.705
	c-1.448,4.292-1.815,9.199-0.739,14.073c-1.564-5.796-2.195-12.229-1.205-18.996c-2.193,4.7-2.955,8.668-3.26,12.078
	c-0.279,3.426-0.088,6.352,0.262,9.344c0.354,2.994,0.855,6.063,1.526,9.797c0.347,1.956,0.765,4.145,1.271,6.564l0.195,0.923
	l0.099,0.472c0.023,0.162,0.063,0.319,0.159,0.456l0.962,1.777l2.021,3.865l-2.051-3.476c-0.663-1.173-1.512-2.258-1.662-3.589
	c-0.618-2.516-1.131-5.061-1.512-7.324c-0.754-4.396-1.102-8.349-1.309-11.393c-0.215-3.043-0.338-5.181-0.769-5.939
	c-0.409-0.755-1.187-0.136-2.176,2.441c0.124,3.744,0.401,7.43,0.815,11.065c0.103,0.909,0.211,1.816,0.335,2.717
	c0.119,0.925,0.242,1.749,0.394,2.761c0.127,0.838,0.268,1.673,0.412,2.507C286.455,287.958,342.019,368.1,379.416,425.203
	c-2.204-4.971-6.476-12.69-9.408-18.598c-12.816-19.886-27.541-40.083-37.685-57.354c13.8,16.39,30.842,41.196,48.197,66.757
	c17.322,25.615,34.841,51.899,48.188,72.74c-2.591-0.996-7.821-9.57-13.954-19.108c-6.099-9.561-12.996-20.165-17.752-25.85
	c5.666,9.83,11.233,19.714,16.494,29.729c-9.988-15.628-20.667-30.822-31.409-45.986c-0.006,0.575-0.131,0.974-0.311,1.28
	c18.227,27.937,31.944,50.279,40.871,69.558c1.879,3.244,3.681,6.498,5.376,9.804c2.81,5.513,5.342,11.177,7.345,17.19
	c1.996,6.008,3.463,12.383,3.889,19.191c0.435,6.799-0.236,14.024-2.348,21.439c-2.097,7.419-5.599,14.985-10.329,22.608
	c-3.718,2.291-8.469,9.876-14.73,18.329c-6.197,8.464-13.736,17.798-21.093,23.86c-14.172,21.515-37.93,46.195-61.991,70.207
	c-24.106,24.01-48.569,47.561-65.426,66.291c2.649-3.691,5.422-7.448,8.301-11.261c-24.85,26.119-52.685,55.934-83.601,90.342
	c-6.387,8.849-19.234,27.339-2.256,11.764l12.965-18.278c-5.595,8.796-11.151,17.609-16.67,26.439
	c2.027-6.424-16.626,7.778,3.816-17.535C166.19,870.729,156.191,882.323,133.978,908.238z M567.6,586.732
	c1.363-1.353,4.482-4.778,5.119-9.859c0.001-0.16,0.019-0.34,0.067-0.556c-0.017,0.189-0.044,0.371-0.067,0.556
	c-0.013,1.486,1.853,0.781,2.994,0.772c0.63-0.001,1.047,0.22,0.778,1.186c-0.274,0.968-1.212,2.684-3.511,5.695
	C566.664,587.473,566.151,588.142,567.6,586.732z M550.384,610.026c-3.178,4.234-6.462,8.529-13.762,14.888
	C541.09,619.215,539.352,616.649,550.384,610.026z M468.797,382.3l2.272,3.546c-6.588-6.965-13.144-13.97-19.662-21.015
	C457.001,369.739,462.899,378.028,468.797,382.3z M235.735,180.11l-8.078-12.561l-0.927-1.434c-0.252-0.502-0.331-1.073-0.497-1.611
	c-0.285-1.093-0.544-2.199-0.777-3.317c-0.113-0.565-0.225-1.106-0.327-1.698c-0.105-0.599-0.204-1.2-0.291-1.802
	c-0.175-1.204-0.323-2.412-0.423-3.622c0.128-1.324,0.296-2.636,0.518-3.928c0.015,2.555,0.201,5.117,0.56,7.664
	c0.082,0.634,0.191,1.279,0.29,1.902c0.111,0.591,0.208,1.178,0.333,1.762c0.23,1.169,0.504,2.326,0.799,3.471
	c0.077,0.285,0.144,0.574,0.23,0.854l0.477,0.757l0.95,1.508l2.009,3.196l4.341,6.928c5.797,9.231,11.634,18.435,17.513,27.609
	C246.832,197.255,241.267,188.695,235.735,180.11z M427.368,499.171c-1.09-3.292-2.26-6.571-3.484-9.837
	c4.301,7.971,8.294,16.125,11.537,24.591C432.974,508.859,430.253,503.96,427.368,499.171z M429.949,482.197
	c-2.856-4.924-5.256-9.335-7.463-15.733c6.206,8.992,12.245,18.216,17.771,28.078c-0.174,2.248-0.376,4.486-0.616,6.713
	C436.141,492.553,432.776,487.134,429.949,482.197z M220.63,811.34c6.396-5.425,12.58-7.253-1.028,7.11
	C213.233,823.892,220.798,813.27,220.63,811.34z M140.846,911.598l17.604-20.819l-3.675,11.786
	C145.423,910.97,134.565,920.854,140.846,911.598z"/>
</svg>
