<?xml version="1.0" encoding="utf-8"?>
<!-- Generator: Adobe Illustrator 15.0.0, SVG Export Plug-In . SVG Version: 6.00 Build 0)  -->
<!DOCTYPE svg PUBLIC "-//W3C//DTD SVG 1.1//EN" "http://www.w3.org/Graphics/SVG/1.1/DTD/svg11.dtd">
<svg version="1.1" id="Calque_1" xmlns="http://www.w3.org/2000/svg" xmlns:xlink="http://www.w3.org/1999/xlink" x="0px" y="0px"
	 width="785px" height="1080px" viewBox="0 0 785 1080" enable-background="new 0 0 785 1080" xml:space="preserve">
<g>
	<g>
		<g>
			<g>
				<g>
					<path fill="#FFFFFF" d="M175.588,911.598c-6.281,9.257,4.577-0.628,13.929-9.033l3.675-11.786L175.588,911.598z"/>
					<path fill="#FFFFFF" d="M216.822,866.298c5.518-8.83,11.075-17.644,16.669-26.439l-12.965,18.278
						c-18.323,16.811-1.905-6.063,3.637-13.666C198.187,875.62,218.955,859.539,216.822,866.298z"/>
					<path fill="#FFFFFF" d="M254.344,818.45c13.609-14.363,7.425-12.535,1.028-7.11C255.54,813.27,247.975,823.892,254.344,818.45z
						"/>
					<path fill="#FFFFFF" d="M507.619,381.843c-3.044-4.721-6.868-10.081-5.566-9.957
						C497.347,367.702,495.859,367.223,507.619,381.843z"/>
					<path fill="#FFFFFF" d="M502.053,371.886c0.903,0.807,1.876,1.669,3.005,2.719c-0.865-0.917-1.566-1.707-2.581-2.72
						C502.144,371.679,502.211,371.904,502.053,371.886z"/>
					<path fill="#FFFFFF" d="M227.796,142.646c-0.181,4.364-0.029,8.333,0.276,12.004c0.155,1.835,0.354,3.594,0.577,5.294
						l0.364,2.5l0.46,2.818c0.365,2.128,0.787,4.203,1.25,6.231l0.706,3.014l0.348,1.493l0.172,0.743
						c0.099,0.232,0.243,0.446,0.361,0.669l2.948,5.261l1.505,2.584l0.904,1.538c4.335,7.423,8.46,14.795,14.274,23.672l2.44,12.305
						c12.893,19.078,8.179,6.953,18.578,20.163c4.262,9.657,12.661,23.608,20.703,36.154c8.034,12.552,15.697,23.704,18.264,27.957
						c2.052,6.85-6.809-5.86-9.566-8.097c7.736,11.05,12.22,15.617,16.993,20.959c4.781,5.336,9.846,11.452,18.929,25.464
						l-0.641,1.076c12.069,15.953,24.591,33.161,37.369,51.083c12.758,17.926,25.824,36.56,38.516,55.45
						c6.333,9.446,12.562,18.96,18.433,28.488c5.858,9.524,11.378,19.077,15.965,28.509c4.581,9.426,8.173,18.718,9.873,27.453
						c1.724,8.755,1.558,16.913-0.529,25.368c0.775-2.219,1.211-2.995,1.676-3.417c0.456-0.423,0.907-0.479,1.503-1.288
						c-1.668,9.051-5.83,18.434-11.473,27.775c-5.639,9.347-12.604,18.616-20.01,27.76c-7.423,9.146-15.319,18.188-23.299,27.158
						c-7.987,8.97-16.071,17.866-24.052,26.69c-15.975,17.641-31.508,35.004-45.677,51.777
						c-14.179,16.769-27.018,32.934-37.855,48.033c16.856-18.73,41.32-42.281,65.426-66.291
						c24.062-24.012,47.819-48.692,61.991-70.207c7.356-6.063,14.896-15.396,21.093-23.86c6.261-8.453,11.013-16.039,14.73-18.33
						c4.73-7.622,8.233-15.189,10.329-22.607c2.111-7.415,2.782-14.641,2.348-21.439c-0.427-6.809-1.893-13.184-3.889-19.191
						c-2.003-6.013-4.535-11.677-7.345-17.19c-5.653-11.022-12.362-21.475-19.879-32.883c-7.54-11.402-15.967-23.747-25.585-38.406
						c-4.883-8.82-0.511-5.852-0.472-9.353c10.742,15.164,21.421,30.358,31.409,45.986c-5.261-10.014-10.828-19.899-16.494-29.729
						c4.756,5.685,11.653,16.289,17.751,25.85c6.133,9.538,11.363,18.112,13.954,19.108c-13.346-20.841-30.865-47.125-48.187-72.74
						c-17.355-25.561-34.397-50.368-48.197-66.757c10.143,17.272,24.868,37.468,37.684,57.354
						c4.663,9.392,12.712,23.367,10.455,23.589c-20.99-26.602-38.881-51.925-56.136-77.981
						c-17.274-26.046-34.006-52.735-53.074-81.938c-9.582-14.627-21.533-35.125-21.323-38.602c6.49,9.473,3.419,1.226,9.083,8.79
						c-7.089-10.135-8.921-9.763-11.215-10.719c-2.282-0.963-5.047-3.25-13.8-18.846l8.229,0.461
						c-6.726-4.268-11.997-13.855-17.579-24.866l-4.277-8.465l-1.108-2.157l-1.402-2.644l-1.411-2.662l-0.356-0.664
						c-0.083-0.235-0.108-0.492-0.166-0.737l-0.298-1.485c-0.401-1.979-0.756-3.968-1.058-5.967
						c-0.152-1.012-0.274-1.836-0.394-2.761c-0.124-0.901-0.232-1.808-0.335-2.717c-0.414-3.636-0.691-7.322-0.815-11.065
						c0.989-2.577,1.767-3.196,2.176-2.441c0.431,0.759,0.553,2.896,0.768,5.939c0.208,3.044,0.555,6.997,1.31,11.393
						c0.38,2.264,0.893,4.809,1.511,7.324c0.15,1.331,0.999,2.416,1.662,3.589l2.051,3.476l-2.021-3.865l-0.961-1.777
						c-0.096-0.137-0.136-0.294-0.16-0.456l-0.098-0.472l-0.196-0.923c-0.507-2.419-0.924-4.608-1.272-6.564
						c-0.671-3.734-1.171-6.803-1.526-9.797c-0.349-2.992-0.541-5.918-0.261-9.344c0.305-3.41,1.067-7.378,3.259-12.078
						c-0.99,6.767-0.358,13.199,1.206,18.996c-1.076-4.875-0.709-9.781,0.74-14.073c1.438-4.306,3.936-7.96,6.813-10.705
						c2.88-2.766,6.116-4.626,9.152-5.888c3.058-1.259,5.922-1.945,8.43-2.522c0.295-0.914-2.255-1.378-2.219-2.758
						c0.038-0.691,0.75-1.702,3.058-2.953c2.297-1.197,6.273-2.73,12.66-3.048c2.743,0.041,4.423,0.362,5.444,0.665
						c1.021,0.316,1.389,0.635,1.504,0.927c0.224,0.589-0.532,1.093,0.632,1.62c0.717-0.626,3.352-1.474,7.942-1.195
						c4.533,0.29,11.152,1.854,18.232,6.579c0.703,1.691-1.979,0.622-5.121-0.323c-3.144-0.991-6.789-1.719-7.625-0.964
						c10.873,4.341,18.528,11.119,22.408,18.671c3.425,3.799,4.949,5.825,5.824,6.517c0.852,0.71,0.942,0.14,0.94-0.619
						c-0.004-0.776-0.178-1.794,0.216-1.993c0.195-0.099,0.527,0.009,1.086,0.464c0.287,0.244,0.597,0.534,0.948,0.881
						c0.362,0.348,0.798,0.742,1.363,1.354c16.682,27.22-3.845,6.427-0.689,18.5c-1.978-2.298-3.989-4.705-6.01-7.178l-3.034-3.754
						l-0.759-0.95l-0.859-1.102c-0.322-0.41-0.577-0.828-0.867-1.245l-0.632-0.862c-3.388-4.555-7.301-8.547-11.389-11.588
						c-4.079-3.059-8.303-5.164-12.084-6.402c-3.787-1.248-7.11-1.653-9.519-1.622c5.672,0.587,11.376,2.588,16.529,5.796
						c5.166,3.2,9.791,7.591,13.62,12.809c-0.808-0.16-0.474,1.236,0.123,3.196l0.115,0.375l0.063,0.201l0.123,0.304
						c0.173,0.409,0.324,0.829,0.55,1.259l0.324,0.651c0.12,0.232,0.156,0.345,0.24,0.524l0.441,0.991l1.713,3.867
						c2.059,4.793,2.606,7.354-5.145-2.184c11.997,19.772,26.541,40.769,41.636,61.072c15.089,20.31,30.729,39.921,44.732,57.123
						c-3.126-5.504-7.538-12.287-5.597-12.087c14.735,17.585,10.972,17.213,12.462,21.98c11.5,12.576,13.518,8.66,22.16,15.117
						c9.331,14.847,15.256,22.873,20.634,30.495c5.394,7.617,10.247,14.826,17.779,27.903l1.906-3.922
						c5.418,9.187,9.81,13.412,14.409,17.71c4.606,4.296,9.419,8.666,15.841,18.094c0.16,1.51-6.22-4.49-11.401-9.271
						c13.919,14.594,9.371,16.381,23.29,30.333l-13.472-9.007c10.247,11.875,26.317,28.326,18.184,24.683
						c10.65,8.875,23.562,22.576,36.793,36.989c13.221,14.425,26.704,29.558,38.027,41.637l-4.036,0.444
						c3.475,2.656,7.629,7.061,11.824,12.332c4.186,5.267,8.398,11.417,11.776,17.444c3.411,6.038,5.823,11.857,7.174,16.55
						c1.394,4.707,1.896,8.474,2.758,11.373c-0.544,0.551-1.101,1.075-1.67,1.577c-0.004,4.121-0.902,8.667-2.561,13.374
						c-1.648,4.707-4.001,9.532-6.721,14.31c-4.752,5.726-7.575,6.636-8.905,6.443c-1.365-0.204-1.428-1.544-1.288-0.62
						c-5.231,6.274-10.676,12.077-16.007,17.477c-5.34,5.399-10.588,10.399-15.672,15.048c-10.178,9.293-19.676,17.195-28.611,23.9
						c-1.118,7.167-27.889,32.123-49.375,51.82c-26.797,22.666-53.593,46.384-79.917,70.863
						c-26.331,24.473-52.203,49.689-77.325,75.203c-25.124,25.512-49.501,51.317-72.911,76.931
						c-5.853,6.403-11.646,12.794-17.375,19.166l-8.56,9.557l-2.144,2.408c-0.69,0.816-1.326,1.549-2.008,2.276
						c-1.352,1.456-2.788,2.825-4.294,4.105c-6.013,5.125-13.337,8.653-21.126,9.924c-7.777,1.303-15.922,0.384-23.304-2.503
						c-4.353-1.857-8.992-4.31-13.439-7.76c-4.441-3.433-8.676-7.902-11.912-13.432c-3.251-5.502-5.394-12.079-5.962-18.93
						c-0.596-6.852,0.373-13.876,2.43-20.283c-3.394,7.511-4.608,14.104-4.785,19.707c-0.155,5.628,0.676,10.32,2.07,14.737
						c1.426,4.412,3.434,8.611,6.533,13.117c3.13,4.46,7.382,9.313,14.077,13.944c4.882,3.688,9.472,6.221,13.804,8.237
						c4.345,1.992,8.462,3.455,12.688,4.511c4.226,1.038,8.575,1.68,13.397,1.634c4.807-0.066,10.125-0.816,15.95-2.959
						c-4.298,0.75-8.589,0.989-12.718,0.756c4.3-1.559,7.667-3.275,10.415-4.847c2.746-1.581,4.887-3.019,6.671-4.266
						c3.547-2.517,5.756-4.203,7.745-5.807c0.986-0.795,1.927-1.624,2.835-2.511c0.852-0.863,1.65-1.639,2.586-2.707
						c0.912-1.035,1.987-2.345,3.24-3.996c1.25-1.647,2.681-3.639,4.366-6.096l3.833,5.034c3.413-8.187,19.757-21.261,26.888-26.213
						l2.292-8.516c14.802-11.691,24.128-19.602,30.923-20.865l-4.089-1.504c3.363-1.619,16.003-14.4,26.51-24.14
						c10.503-9.747,18.812-16.489,13.238-6.34c3.24-4.422,5.352-9.349,14.197-17.281l4.04,1.584
						c11.578-12.621,24.894-26.327,30.005-28.097c-6.073,7.05-7.124,10.46-8.137,13.818c26.394-24.621,27.072-29.482,26.795-33.868
						c-0.233-4.338-1.404-8.167,22.103-30.013l1.181,2.393l10.191-12.98l14.826-9.057c5.654-10.994,22.582-25.884,41.447-41.534
						c18.854-15.662,39.654-32.137,52.75-46.8c5.514-5.354,12.909-10.411,21.592-16.754c8.668-6.367,18.681-13.947,29.131-24.908
						l-4.187-1.384c2.486-1.789,5.679-4.352,9.368-7.62c3.687-3.273,7.875-7.242,12.297-11.998
						c4.408-4.769,9.088-10.31,13.461-17.095c2.178-3.395,4.268-7.118,6.089-11.218c1.822-4.094,3.361-8.582,4.393-13.32
						c1.035-4.733,1.543-9.697,1.503-14.541c-0.029-4.849-0.581-9.557-1.431-13.942c-1.72-8.798-4.479-16.295-7.089-22.774
						c-2.639-6.481-5.207-11.997-7.277-16.724c-2.078-4.719-3.679-8.637-4.549-11.709c-16.854-16.887,0.888,2.391-1.983,3.957
						c-7.751-8.708-13.468-15.005-17.83-20.358c-4.367-5.318-7.393-9.577-9.847-13.464c-4.909-7.758-7.54-14.027-14.123-23.322
						c-9.491-9.34-6.427-5.273-2.447,0.028c3.982,5.306,8.892,11.894,3.059,7.47c-12.291-16.324-18.607-21.65-25.743-27.904
						c-7.114-6.248-15.106-13.331-30.276-33.089c-1.52-5.188,9.511,8.757,13.989,11.673c-12.962-11.93-29.508-30.729-46.704-51.724
						c-17.214-20.984-35.049-44.178-51.161-64.563c-16.984-24.428-38.11-54.571-59.185-86.282
						c-10.544-15.849-21.087-32.079-31.176-48.111l-7.475-11.977l-0.92-1.489l-0.057-0.093c-0.014-0.023-0.005-0.014-0.009-0.022
						l-0.005-0.025l-0.014-0.048l-0.06-0.167l-0.018-0.044l-0.136-0.245l-0.304-0.537l-0.619-1.071l-1.282-2.125
						c-1.752-2.817-3.652-5.574-5.722-8.236c-8.229-10.665-19.174-19.815-31.802-25.722c-0.825,0.171-1.634,0.34-2.443,0.534
						c-10.218-5.111-22.403-7.875-35.211-7.034c-6.395,0.417-12.936,1.737-19.335,4.091c-6.394,2.347-12.645,5.745-18.31,10.161
						c-5.667,4.403-10.718,9.833-14.745,15.891c-4.042,6.052-7.048,12.688-9.037,19.365c-1.999,6.688-2.995,13.395-3.315,19.868
						c-0.154,3.236-0.14,6.419,0.004,9.544c0.078,1.558,0.18,3.108,0.32,4.636l0.111,1.181l0.174,1.506
						c0.126,1.038,0.268,2.075,0.424,3.113c-0.15-1.362-0.272-2.725-0.371-4.084c-0.051-0.696-0.056-1.137-0.075-1.651l-0.035-1.514
						c-0.035-2.021-0.005-4.072,0.096-6.145C226.481,151.161,226.96,146.923,227.796,142.646z"/>
					<path fill="#FFFFFF" d="M474.383,501.255c0.24-2.228,0.442-4.466,0.616-6.713c-5.525-9.861-11.564-19.086-17.771-28.078
						c2.207,6.398,4.606,10.809,7.463,15.733C467.519,487.134,470.883,492.553,474.383,501.255z"/>
					<path fill="#FFFFFF" d="M462.111,499.171c2.885,4.789,5.605,9.688,8.052,14.754c-3.243-8.465-7.236-16.62-11.537-24.591
						C459.851,492.601,461.021,495.879,462.111,499.171z"/>
					<path fill="#FFFFFF" d="M259.674,150.137c-0.221,1.292-0.389,2.604-0.517,3.928c0.1,1.21,0.248,2.418,0.423,3.622
						c0.086,0.602,0.185,1.203,0.291,1.802c0.103,0.592,0.214,1.133,0.327,1.698c0.234,1.117,0.493,2.224,0.778,3.317
						c0.166,0.538,0.245,1.109,0.497,1.611l0.927,1.434l8.078,12.561c5.532,8.584,11.097,17.145,16.698,25.678
						c-5.878-9.175-11.716-18.378-17.513-27.609l-4.34-6.928l-2.008-3.196l-0.951-1.508l-0.477-0.757
						c-0.086-0.281-0.153-0.569-0.23-0.854c-0.295-1.145-0.568-2.301-0.799-3.471c-0.125-0.584-0.222-1.171-0.333-1.762
						c-0.099-0.623-0.208-1.268-0.29-1.902C259.876,155.254,259.689,152.692,259.674,150.137z"/>
					<path fill="#FFFFFF" d="M503.539,382.3c-5.897-4.272-11.796-12.561-17.389-17.469c6.518,7.045,13.073,14.05,19.662,21.015
						L503.539,382.3z"/>
					<path fill="#FFFFFF" d="M607.528,576.318c-0.467,5.389-3.773,9.013-5.187,10.414c-1.448,1.409-0.936,0.74,5.381-2.206
						c2.299-3.012,3.236-4.728,3.511-5.694c0.269-0.967-0.148-1.188-0.778-1.187C609.189,577.654,607.027,578.531,607.528,576.318z"
						/>
					<path fill="#FFFFFF" d="M571.364,624.914c7.3-6.357,10.584-10.654,13.762-14.887
						C574.094,616.649,575.832,619.215,571.364,624.914z"/>
				</g>
			</g>
		</g>
	</g>
</g>
</svg>
