<?xml version="1.0" encoding="utf-8"?>
<!-- Generator: Adobe Illustrator 15.0.0, SVG Export Plug-In . SVG Version: 6.00 Build 0)  -->
<!DOCTYPE svg PUBLIC "-//W3C//DTD SVG 1.1//EN" "http://www.w3.org/Graphics/SVG/1.1/DTD/svg11.dtd">
<svg version="1.1" id="Calque_1" xmlns="http://www.w3.org/2000/svg" xmlns:xlink="http://www.w3.org/1999/xlink" x="0px" y="0px"
	 width="785px" height="1080px" viewBox="0 0 785 1080" enable-background="new 0 0 785 1080" xml:space="preserve">
<g>
	<g>
		<g>
			<g>
				<g>
					<path fill="#FFFFFF" d="M236.518,130.282c-3.795,0.771-0.627,1.101,0.829,2.436L236.518,130.282z"/>
					<path fill="#FFFFFF" d="M237.346,132.718l0.578,1.73C238.132,133.731,237.836,133.182,237.346,132.718z"/>
					<path fill="#FFFFFF" d="M244.788,147.369c-4.44-1.424-3.894-7.284-8.747-6.689C236.146,145.232,240.4,149.352,244.788,147.369z
						"/>
					<polygon fill="#FFFFFF" points="243.789,141.188 241.61,142.164 246.483,142.715 					"/>
					<polygon fill="#FFFFFF" points="244.176,138.035 243.75,138.917 248.668,141.701 					"/>
					<path fill="#FFFFFF" d="M250.75,158.641l-2.704-2.672c0.564-4.713,4.847-0.609,5.236-3.767
						c-2.737-3.792-6.357,2.556-8.897-2.813c-2.177,2.127,5.454,7.604,1.061,9.582C247.084,163.835,247.854,157.545,250.75,158.641z
						"/>
					<path fill="#FFFFFF" d="M402.478,327.415c-0.062,0.279-0.03,0.458-0.053,0.687
						C402.714,327.641,402.887,327.253,402.478,327.415z"/>
					<path fill="#FFFFFF" d="M441.06,375.76c0.097,0.973,0.356,1.833,0.677,2.619c0.247-0.486,0.424-1.008,0.465-1.56L441.06,375.76
						z"/>
					<path fill="#FFFFFF" d="M372.791,301.088c-0.086-1.029-0.261-1.9-0.465-2.666C372.052,299.186,372.078,300.059,372.791,301.088
						z"/>
					<path fill="#FFFFFF" d="M457,610.655c-0.131-0.342-0.35-0.737-0.748-1.202c-0.036-0.002-0.09,0.007-0.155,0.003l0.422,1.384
						L457,610.655z"/>
					<path fill="#FFFFFF" d="M487.189,427.81c0.614,0.761,1.26,1.476,2.016,1.985C488.331,428.43,487.712,427.907,487.189,427.81z"
						/>
					<path fill="#FFFFFF" d="M359.541,283.167c0.174,0.294,0.345,0.534,0.516,0.774c-0.03-0.341-0.118-0.771-0.275-1.214
						l-0.267,0.403L359.541,283.167z"/>
					<path fill="#FFFFFF" d="M434.536,355.641c0.216,0.875,0.449,1.639,0.837,2.153
						C435.246,356.943,434.925,356.258,434.536,355.641z"/>
					<path fill="#FFFFFF" d="M279.716,208.333c0.263,1.112,1.014,1.657,1.922,1.973C281.823,209.345,281.429,208.57,279.716,208.333
						z"/>
					<path fill="#FFFFFF" d="M292.943,226.038c-0.044-0.021-0.071-0.058-0.095-0.092
						C292.462,226.381,292.597,226.363,292.943,226.038z"/>
					<path fill="#FFFFFF" d="M300.792,237.786c-0.097-0.039-0.163-0.086-0.242-0.134
						C300.312,238.021,300.297,238.139,300.792,237.786z"/>
					<path fill="#FFFFFF" d="M281.638,210.306c-0.458,2.573-5.026,6.504,1.704,4.604l0.446-0.896
						c-0.401,2.027,2.914,2.235,4.04,3.448c0.414-0.501,0.716-0.955,0.958-1.415c-0.417-0.718-0.902-1.711-1.53-3.327
						C287.221,210.292,283.912,211.058,281.638,210.306z"/>
					<path fill="#FFFFFF" d="M401.354,327.925C402.218,327.051,400.85,326.205,401.354,327.925L401.354,327.925z"/>
					<path fill="#FFFFFF" d="M386.286,315.292c0.291,0.554,0.583,1.103,0.921,1.645
						C387.053,316.308,386.897,315.691,386.286,315.292z"/>
					<path fill="#FFFFFF" d="M346.007,255.881c-0.013,0.159,0.008,0.272-0.021,0.433C346.605,256,346.359,255.836,346.007,255.881z"
						/>
					<path fill="#FFFFFF" d="M388.164,318.374c-0.357-0.454-0.651-0.95-0.957-1.437
						C387.327,317.504,387.503,318.054,388.164,318.374z"/>
					<path fill="#FFFFFF" d="M355.614,275.492c0.008,0.122-0.011,0.263,0.028,0.343
						C355.684,275.729,355.669,275.604,355.614,275.492z"/>
					<path fill="#FFFFFF" d="M233.53,804.37c0.624-1.426,2.444-0.801,3.778-1.399c-0.915-5.242-4.536,4.394-4.134-1.483
						c-0.939,0.978-1.293,2.139-1.556,3.282l4.264,1.526C236.646,803.277,233.636,806.584,233.53,804.37z"/>
					<path fill="#FFFFFF" d="M438.269,617.281l0.697-0.176c-1.625-1.027-1.765-1.708-4.146-0.743
						c0.597,3.446,5.85,4.256,5.584,8.979c0.255-0.708,1.077-1.326,2.032-1.729C439.604,622.827,438.735,619.939,438.269,617.281z"
						/>
					<path fill="#FFFFFF" d="M442.436,623.613c0.07,0.01,0.137,0.051,0.225,0.082c0.383,0.17,0.739,0.28,1.084,0.355
						c0.375-0.344,0.828-0.59,1.315-0.67C444.272,623.134,443.298,623.246,442.436,623.613z"/>
					<path fill="#FFFFFF" d="M268.683,771.782c0.518-0.32,0.978-0.612,1.415-0.862C268.981,770.911,268.664,771.26,268.683,771.782z
						"/>
					<path fill="#FFFFFF" d="M442.04,454.553c-0.738-0.333-1.502-0.63-2.172-0.825C440.662,454.468,441.366,454.619,442.04,454.553z
						"/>
					<path fill="#FFFFFF" d="M465.244,596.045c0.608-0.156,1.141-0.416,1.664-0.75c0.212-0.291,0.355-0.569,0.627-0.899
						L465.244,596.045z"/>
					<path fill="#FFFFFF" d="M412.862,704.339c-2.438-4.159-0.394,0.926-4.018,0.731l0.162,3.35
						C410.989,707.482,411.8,705.594,412.862,704.339z"/>
					<path fill="#FFFFFF" d="M231.292,804.654c0.104,0.104,0.191,0.191,0.282,0.315c0.021-0.065,0.02-0.12,0.044-0.2
						L231.292,804.654z"/>
					<path fill="#FFFFFF" d="M366.374,752.264c-0.447,0.094-0.829,0.193-1.221,0.316
						C365.499,752.617,365.903,752.541,366.374,752.264z"/>
					<path fill="#FFFFFF" d="M453.314,615.576l6.271-5.88L457,610.655C457.785,613.129,452.17,612.747,453.314,615.576z"/>
					<path fill="#FFFFFF" d="M440.709,680.358l2.544,1.461c1.778-10.31,14.833-11.128,13.651-21.931
						c14.405-0.321-1.475-11.134,11.58-11.58l-1.229-0.773c11.691-10.511,24.345-20.732,36.246-31.344
						c5.95-5.307,11.712-10.71,17.072-16.297c2.68-2.793,5.258-5.632,7.71-8.526c1.226-1.448,2.42-2.909,3.579-4.387l0.862-1.11
						c0.086-0.108,0.108-0.152,0.248-0.313l0.406-0.473l0.807-0.944l3.158-3.753l1.479,1.335
						c12.063-11.15,24.177-22.734,36.096-34.38c-10.021-14.407-20.351-28.888-30.678-43.197l-5.218-7.16l-4.21-5.702l-8.445-11.374
						c-11.262-15.16-22.477-30.349-33.002-46.195c-4.038-2.491-6.081,2.205-10.08,0.427c-0.808-1.436-3.154-4.308-1.171-5.745
						c2.937,1.801,3.665-0.913,5.074-0.589c-3.27-4.143-4.919-11.333-10.084-13.419l-0.286,5.04
						c-2.144-0.718-3.083-3.578-3.914-5.02c1.722-0.369,3.137-4.334,4.594-3.616c-12.167-3.516-1.749-8.266-9.128-13.265
						c-6.437,2.546-16.993-2.773-24.893-5.6l-0.682-3.958c2.759,3.939,3.94-2.918,7.139,2.122
						c-1.313-5.176-6.343-7.258-8.199-11.714c-0.84,1.723-2.773,2.814-4.489,1.716c-0.932-2.888,1.668-5.053,0.027-7.938l3.61,1.429
						c0.776-3.251-3.029-2.859-4.545-4.282c1.901-2.169-0.543-6.483,2.507-7.588c-5.702-1.393-4.858-3.928-9.615-6.413
						c0.481,5.77-3.752,1.105-5.328,2.915l4.162,3.922c-3.068-7.526,1.9,1.802,5.454-1.46c0.361,4.311-9.39,0.428-5.163,5.063
						c-6.309-4.64-5.477-7.17-13.127-11.059c3.401,3.217-3.049,1.097-2.806,3.954c-3.531-4.64,0.526-2.151,1.985-5.406
						c-1.953-2.503-0.414-5.034-4.989-5.356c-1.811-5.027,3.375-1.46,3.452-4.708c3.794-0.368,5.002,14.014,12.76,6.756
						c1.651,2.117,6.833,2.445,8.904,5.719c-0.835-3.551-0.825-9.489-5.202-11.494l-4.954,3.275
						c-1.957-2.497-5.621-0.687-6.517-2.853c2.099-0.008,2.864-3.241,0.986-5.037c-0.264,1.08,0.486,1.795-0.519,2.169
						c-3.102-3.587-6.779-1.768-10.951-5.695c1.438,4.669,0.547,6.48,0.97,11.508c-4.067,1.467-2.271-2.136-4.162-3.922
						c0.683-0.017,1.085,0.349,1.32-0.739l-3.206-1.051c-1.896-5.753,5.322-2.911,4.189-7.955c0.925-4.706-4.208-2.541-4.066-5.747
						c-0.213,0.357-0.442,0.733-0.575,1.014c-0.27-0.496-0.422-0.881-0.496-1.191c-0.069,0.072-0.115,0.134-0.21,0.202
						c-2.275-2.143-3.916-5.019-6.953-3.92c0.96-1.083-1.891-1.949-3.254-2.205c-2.01-0.669-7.375-1.868-4.787-6.85
						c0.072,0.03,0.076,0.106,0.135,0.139c-1.731-3.461-2.188-6.793-0.342-7.097l-2.568-5.745l3.676-1.809
						c-4.154-3.937-5.752-2.111-11.388-2.823c-0.383-4.67-6.046-9.275-8.814-10.567c-0.126-0.455-0.508-1.015-1.332-1.8l0.068,2.832
						c-2.405-3.67-3.833-1.998-5.529-4.341c0.043,0.708-0.096,0.912-0.516-0.774c-0.227-0.439-0.476-0.915-0.721-1.527
						c0.435-0.13,0.758,0.436,0.961,1.087l0.794-1.216c1.46-5.349-5.11-2.961-6.061-6.884c0.332,0.205,0.909,0.531,1.1,0.865
						c-0.338-2.345,2.57-8.135-0.783-6.815c0.081-0.656-0.922-0.851-2.052-0.934l-0.405-1.615c0.216,0.626,0.327,1.148,0.383,1.605
						c-1.503-0.11-3.205-0.02-2.574-0.62l-2.538-4.802c-0.118-1.17-1.331-2.006-2.444-2.59l0.836-1.72
						c-1.348-1.448-0.544-2.042-0.031-2.12c0.787-8.928-8.544-6.841-8.708-15.766c-3.095,0.483-2.365,3.698-3.453,4.762
						c-2.422,0.317-6.432-1.992-8.9-2.821c1.25-4.915-1.808-15.084,3.675-17.013c-3.169-5.188-1.703,3.536-5.038,2.186l-0.224-0.696
						c0.688,2.083,0.081,4.527-0.983,6.732c-2.186,2.124-6.014-1.726-6.261-3.561l4.167-1.562
						c-4.474-3.679-9.042,1.012-14.566,0.675c-1.2-4.614,3.454-4.786,6.034-7.782l-3.59-3.187l2.626-1.873
						c-2.462-1.977-5.322-0.806-6.736-4.966c4.239,0.712-1.224-6.883,4.546-5.832c-0.477-2.527-5.943,0.539-3.14-2.926
						c-3.742,0.677-0.177,2.703-0.372,4.292c-3.467,3.645-4.911-2.803-7.585-4.341c1.944-1.677,3.538-0.224,3.01-3.903
						c-1.972,0.574-4.414-0.264-3.578-3.163c-2.622,1.87-2.704-2.672-3.632-4.31c0.711,2.082,0.56,5.926-2.506,6.421
						c-2.004-0.582-3.351-1.356-5.168-4.647l0.269,2.966c-5.744,0.09-0.347-6.368-4.151-9.112c2.667,0.397,3.348,1.352,6.211,1.313
						c-2.446-0.835-6.675-2.707-9.8-4.498l1.653-5.78c-2.19,0.991-2.274-3.55-4.896-1.68c-0.949-5.048,5.328,0.801,7.522-0.192
						c-1.663-5.998-7.089-0.694-6.338-8.121l3.529-0.228c-0.907-1.642-4.484-3.692-3.394-4.757c-0.88,0.628,0.017,1.141,0.694,2.091
						c-5.917,2.809-8.682-4.411-13.7,0.024l1.147,2.349c-3.347-2.469-8.655-2.141-8.511-5.976c0.388-3.147,4.622-1.285,6.83-1.158
						c-1.813-3.278-7.702,1.781-9.763-2.209c0.484,2.525-1.703,3.536-3.91,3.39c1.141,2.344,3.222,7.452,4.952,5.059l-0.018-1.13
						c1.537-0.809,2.873-0.038,3.981,0.028c2.041,2.861-1.5,3.081-2.138,4.402c2.534,5.374,5.692-3.476,8.627,1.004l-0.644,1.318
						c2.897,1.098,5.398,4.196,9.13,2.399c-2.142,4.405,4.915,3.943,4.319,7.522c-7.404,5.882-4.764-7.78-10.733-7.258
						c0.052,3.408-4.607,1.311-7.041,1.603l8.474,4.843c-0.639,1.324-2.968,6.173,0.768,5.487l-0.228-0.693
						c2.913,2.239,5.516-0.78,6.232,2.445c-0.428,0.883-2.196,0.999-2.853,1.18c0.925,2.785,3.103,0.654,4.893,1.68
						c0.939,2.775-3.967,1.105-3.462,3.622c4.859,0.527,2.286,4.685,4.099,6.853c3.67-4.091,12.459,4.868,12.765-2.818l6.905,3.379
						c-1.043,3.334-8.813,0.572-11.404,4.718l-2.965-4.498c-4.915,4.6,10.097,6.647,6.106,13.879
						c1.434,2.507,1.786,1.391,2.245,7.751l4.312-4.222c0.524,3.094-1.588,5.724-2.399,6.462c1.276,1.124,2.015,2.426,2.699,3.826
						c-0.95,0.181-1.936,0.179-2.77-0.458c-1.456,3.651-0.092,3.436,1.771,3.018c1.889,0.063,2.739,1.599,3.724,3.068l-2.729-0.009
						c1.032,0.589,2.324,1.294,3.27,0.767c0.44,0.587,0.956,1.075,1.642,1.402c0.57-0.988,2.721-3.956,2.509-6.914
						c1.891,6.691,5.92,10.12,5.174,17.546c-1.523,0.829-4.628,0.167-4.395,0.865c0.925,2.785,5.144,3.516,7.096,1.809
						c0.506,0.419,0.84,0.779,1.103,1.117c-0.896,1.296-1.801,2.751-1.241,3.987c-0.262,0.562-0.352,1.247,0.048,2.14
						c4.395-1.982,5.588,3.77,8.017,3.471c-0.339-1.316-1.272-2.557-2.319-3.747c3.877,0.007,7.986-0.445,6.932,2.449
						c-4.879-1.666-1.408,6.494-6.142,2.114c-2.302,7.095,4.843-0.61,5.837,4.451l-0.158,3.845
						c-3.069,1.621-4.255-3.003-4.895-1.679l1.574,1.467c-3.325-0.218-6.563-7.679-12.551-9.42l4.147,9.111
						c10.527,7.699,15.663,23.006,27.901,27.182c-0.101-0.111-0.219-0.21-0.337-0.308c0.381-0.046,0.95-0.345,2.102-0.984
						l-0.425,0.884l3.318,0.187c-1.248,3.793,0.801,7.766,0.903,12.316c0.359-3.159,0.359-3.159,2.32-4.845
						c3.078-1.617,4.478-2.168,5.481,1.429c-1.964,1.447-3.174-0.351-3.249,2.882c0.199-1.785,2.292-1.814,3.434-0.748
						c-0.14,2.529,1.499,5.406-0.476,6.867c-1.072-0.359-0.817-1.448-0.88-2.164c-1.066-0.363,0.365,4.308-2.847,3.261l2.644,2.5
						c-0.453,2.884-3.426,0.742-4.014,2.18c4.804,3.869,11.15,3.079,15.625,6.489c-1.204,0.549-5.684,3.672-4.36,2.8
						c1.063,4.32,9.982,3.774,13.074,7.349c-1.715,0.375-2.212-1.433-3.678-2.138c6.674,12.922,13.43,22.583,17.037,36.596
						l6.603-0.396l-0.987,5.037c5.336,13.649,14.616,20.425,23.829,30.449c2.732,3.221-1.714,4.325-1.852,6.856
						c4.845,7.885,11.306,6.046,17.441,12.479c-2.105,0.012-7.233,1.136-5.222,4.354c1.728-0.364,4.066-1.467,4.643,1.061
						l-2.106,0.01c-0.778,3.239,2.385,3.576,4.138,7.887c4.737,6.444,12.403,10.352,21.261,12.112
						c3.643,6.088-5.337,2.906-5.548,4.705c-1.223-5.254-2.82-2.247-5.024-2.003c2.825,1.228,5.468,3.261,2.996,6.693
						c2.332,2.853,3.151,4.309,7.456,5.703c-2.165-0.703-1.317-3.234,1.154-2.89c0.613,3.256,6.299,8.605,1.982,11.162
						c10.909,13.608,21.368,30.084,32.384,45.138c3.929,1.061-0.571-2.525,1.911-2.173c5.39,1.772,0.679,3.954,4.983,5.38
						l-3.097,0.354c1.414,2.335,3.988,3.948,6.85,5.329c0.715,0.346,1.448,0.677,2.186,1.001c0.21,0.118,0.289,0.05,0.437,0.079
						l0.4,0.024l0.813,0.07c1.09,0.113,2.205,0.318,3.208,0.639c-1.544,0.507-1.799,1.257-2.077,1.707
						c-0.265,0.467-0.553,0.631-1.962,0.249c0.583,0.37-2.165,2.28-4.954,3.63c-2.754,1.4-5.524,2.276-3.981,1.989
						c4.381-1.292,8.56-2.868,12.537-4.728c1.299-0.369,1.622,1.433,2.397,1.044c-0.972,0.835-2.107,1.638-2.988,2.245
						c-0.877,0.612-1.492,1.041-1.313,1.286c-3.629,0.549-3.517-0.507-3.847-1.092c-2.912,0.622-3.594,1.171-4.347,1.525
						c-0.729,0.388-1.563,0.528-4.496,0.733c0.62,0.093,1.449,0.05,2.386-0.083c0.949-0.117,1.981-0.359,3.322-0.222
						c-0.286,0.271-0.596,0.508-0.932,0.708c0.64-0.155,1.249-0.354,1.828-0.595c1.096,0.237,2.831,0.449,4.124,0.759
						c1.285,0.299,2.15,0.724,1.32,1.127c-0.275,0.055-0.604,0.107-0.99,0.154c1.95,0.567,3.737,1.297,5.362,2.188
						c-2.659-0.391-3.113-0.219-3.171,0.144c-0.051,0.354,0.248,0.945-0.648,1.132c-0.848-0.449-1.723-0.871-2.625-1.267
						c-0.597,0.791-1.709,0.856-3.654,0.567c-1.708-0.975-1.4-0.961-1.034-0.969c0.354,0.004,0.742,0.01-1.1-0.688
						c-0.611,0.011-1.192-0.007-1.745-0.054c1.215,0.515,2.21,1.062,3.107,1.536c0.903,0.469,1.718,0.854,2.739,0.88
						c1.885,1.331,3.482,2.683,4.172,4.07c0.697,1.381,0.412,2.875-1.307,4.326c-2.217-0.739-2.46-1.807-2.778-2.789
						c-0.286-1.015-0.618-1.973-2.437-3.071c-0.417,0.104-0.624,0.315-0.697,0.636c-0.019,0.08-0.028,0.166-0.03,0.26l0.002,0.145
						l0.005,0.076l-0.058,0.143c-0.161,0.396-0.283,0.805-0.373,1.223c-0.359,1.67-0.203,3.49,0.059,5.261
						c0.523,3.542,1.468,6.887-0.449,8.448c-5.641,3.224-2.661,5.696-6.965,10.386c-0.586-3.443-5.299,0.987-8.042-0.105
						l-0.313-3.861c-0.742,1.991-2.843,2.515-3.906,0.643c2.976,2.469-3.285,8.378-5.088,12.771l2.863,1.781
						c-1.648,3.198-3.54,8.018-6.707,9.986c-3.072,4.567-0.147,5.755-0.561,11.229c-3.726-0.473-6.019-3.124-8.017-6.204
						c2.208,0.163,3.246-2.263,5.647-3.227c2.827-6.832,1.688-15.482,7.632-19.171c-3.534-7.715-2.598,3.902-6.917,4.265
						c-0.267-0.406-0.207-0.685-0.083-0.918c-0.221,0.196-0.429,0.356-0.75,0.423c1.037-2.419,2.957-6.127,0.551-9.47
						c-2.312,3.468,3.525,7.714-2.482,8.888c-1.089,4.234-7.687,1.972-9.686,3.191c0.332,3.877,4.771,8.467-0.46,11.958
						l-1.244-5.064c-5,4.869,2.302,6.935-2.41,11.362c1.98-1.234,1.542,4.648,4.684,1.68c0.18,3.184-2.829,6.83-6.222,8.4
						c-0.165,1.128,0.937,1.207,1.887,2.395c4.942-0.555,2.215-6.47,7.62-5.576l-1.486-5.306c3.784-1.326,6.776,1.147,6.554,4.053
						c0.579-0.861,0.739-1.965,1.859-1.896c5.551,4.679-4.888,1.248-1.435,6.472l1.44-2.169c4.098,2.534-1.301,7.129-3.859,9.225
						c-4.192,1.071-7.167,2.913-9.75,0.688l2.5-4.568c-3.756-0.091-3.383,5.645-5.536,7.604c-0.465-0.194-0.909-0.243-1.323-0.176
						c0.318,0.107,0.595,0.265,0.83,0.5c-0.553,0.318-1.238,0.412-2.146,0.17c-1.931,1.679-3.108,5.799-5.559,6.709l2.356,1.939
						l-0.981-1.437c1.737-1.567,5.3-2.486,5.652,0.366c-2.231,5.221-7.124,1.831-9.881,0.849c-2.438-4.152,3.669-3.606,4.438-6.627
						c-4.395-2.112-4.13,3.45-10.134,5.146c-2.041-5.109,4.519-4.411,2.069-8.553c-3.713,2.49-1.985,5.839-6.157,8.194
						c-1.236-2.071,1.785-5.407-0.55-7.325l-3.114,1.073c4.936-5.351-5.344-3.543-2.204-8.427c-3.357,0.43,0.271,5.558-4.685,5.986
						c2.306,0.806,7.291,1.489,6.112,5.462l-3.965,1.862c-2.944-0.509-0.764-6.84-4.121-6.403l-1.831,4.269
						c1.165,0.958,3.163,0.034,3.711,2.417c-2.91,0.613,1.223,7.002,0.725,10.655c-1.737,1.567-3.268,2.66-5.098,2
						c-1.013,7.314-6.402,12.483-7.246,19.317c0.48-4.758-3.748-3.541-6.922-3.584c2.564-3.463-0.757-6.829-3.11-8.765
						c-1.474,2.195,0.766,6.838,2.813,7.031c-4.433,1.695,0.204,4.434-4.741,4.872c-2.901,0.588-2.425-4.169-4.287-4.828
						c-3.462,3.159,3.162,4.963-1.222,7.771c-0.248-0.643-0.058-1.106-0.961-1.442c-2.646,1.238-3.162,4.899-1.924,6.973
						c-6.421-2.294-5.353,6.291-9.178,1.653c-3.558,5.83,3.014,1.616,3.565,4.021c-0.043,3.8-5.14,5.813-6.92,6.25
						c1.066-1.249,0.969-3.475,2.745-3.932l-3.932-1.951c-7.938,3.743,2.955,10.361-5.236,13.453
						c1.37-4.442-1.264-3.196-1.897-6.713c-0.139,1.609-5.383,5.2-0.459,4.777c-2.369,1.872-4.366,2.816-6.363,3.739
						c-0.751,3.013-1.978,5.869-1.15,8.889c-3.271,2.662-7.553,2.771-10.255,2.904c-4.113,8.366-13.501,10.497-17.81,19.332
						l0.661-0.309c-5.644,4.557,6.166,1.654,0.763,6.847c-2.897-4.315-5.606,0.74-9.228,0.544
						c-8.348,4.649-8.6,13.872-17.009,17.434c-0.706-0.803-1.218-2.09-0.151-3.339c-5.704,3.436-8.667,7.842-12.979,11.771
						l-0.263-0.62c-9.523,3.685-12.009,13.196-17.983,20.9c0.101-1.009-1.113-2.512-1.165-3.421
						c-4.257,2.631-10.29,7.614-9.424,13.319c-7.637,0.545-1.628,3.789-10.329,5.612c-0.936-0.331-0.071-1.116,0.142-1.603
						c-3.776,1.397-5.241,3.602-8.283,5.794c-3.48,8.065-0.271,14.133-8.375,19.45c-5.243-4.559,2.909-5.34-0.84-9.386
						c-0.467,2.206-0.629,4.364-3.64,5.049c-0.805-3.023-0.966-1.447-1.989-4.001c-2.698,0.125-0.59,10.806-1.024,10.315
						c0.871,1.024,1.867,1.051,3.056-0.411c1.446,4.578-6.342,6.84-8.379,11.304c1.143-0.971,5.417-3.336,6.49,0.226
						c-5.397,3.325-2.137,9.48-3.235,14.48c-6.232,1.799-1.155-7.08-5.344-9.758c-1.924-0.579-6.281-1.709-5.934-4.734
						c-4.341,2.877-4.003,8.415-6.478,12.381l-0.878-1.055c-4.096,4.897-4.65,13.938-10.377,15.76l3.112-0.892
						c-0.159,1.318-2.708,3.305-1.979,6.533c-1.48-1.751-5.863-0.269-5.991-2.8c3.167,7.168-7.088,13.361-4.438,20.497
						c-2.496-0.094-3.629-3.148-4.44-4.688c3.284-2.394,5.272-2.33,4.7-5.884c-2.29,2.432-5.344,2.837-6.16,1.295
						c0.848,5.578-3.511,12.468-1.481,16.874c-3.338,0.113-5.853,0.888-7.929-2.395c-5.577,8.909,11.845,4.686,3.626,12.826
						c-6.324,1.131,0.123-7.156-5.904-2.896l0.525-1.375c-10.615-3.186,2.318,7.529-2.117,11.509
						c-4.326-3.201,0.245-5.617-5.349-5.405c-2.901,4.799,0.98,12.053-4.075,14.697l-0.992-2.198
						c-2.166,2.764-7.72,6.781-9.873,9.531c-0.857-0.624-0.395-0.876-0.13-1.548c-5.962,3.117,0.023,3.816-6.288,4.935l0.755,2.888
						c3.165-0.568,8.611-2.341,8.826-6.845c-0.215,4.504,8.454,1.059,10.485,5.432l-0.818-1.754
						c11.676-0.648,20.307-7.902,30.201-13.646c1.09-8.775,9.939-6.849,12.579-14.796c-3.564-5.215,0.109-1.872,3.77-7.299
						c-1.859,2.954,3.057,3.628,5.169,2.699c-0.247-2.021,0.42-3.513,1.1-4.998c2.423,0.588,11.688-1.606,10.799-6.684
						c4.174-1.356,0.762,2.056,1.07,3.57c3.377,1.125,0.488-4.017,2.919-3.423c0,0,0.432,0.518,0.363,1.028
						c4.054-4.409,7.727-5.79,12.682-9.644c-3.948-4.674,2.707-5.952,3.124-9.453c0.758,2.029,4.092-0.863,6.157-1.299l-0.843-5.562
						c-0.387-5.057,5.165-1.332,6.713-5.822l-1.502-0.044c0.919-3.502,9.31-6.717,13.796-6.566
						c11.955-28.801,36.252-26.791,55.442-50.549c0.099-2.695-3.203-1.158-4.03-4.178c1.684-2.678,2.363-2.994,4.286-5.038
						c-2.911,0.598-1.19,1.753-2.167,0.33l-1.828,4.255c-0.464-0.171-0.257-0.633-1.163-0.96c-0.625,1.42-0.964,3.484-2.504,4.568
						c0.765-2.999-1.889-6.705,1.896-8.072c0.241,0.636,0.044,1.105-0.358,2.057c2.378-1.87,0.959-3.5,3.397-4.254
						c2.661-1.241,1.199-1.744,2.833-0.615l7.778-4.347c-0.78-6.83,6.568-6.934,7.899-7.561c2.19,3.51-3.139,4.892-1.828,9.185
						l4.272-0.101l-2.151-2.41l3.738-2.488l0.264,0.613c-0.522-1.26-1.025-2.525,0.556-2.535c0.453,0.183,1.377,0.502,1.165,0.98
						l0.965-3.482c1.07,3.656,2.655-1.243,5.053,1.801c8.612-5.878,5.545-12.886,15.638-15.545c-2.32-0.249-2.279-6.321,0.18-7.783
						c1.798-0.466,2.702-0.133,3.023,1.624l1.173-3.966c7.474,1.033,7.879-4.848,14.049-8.115l0.958,1.446
						c0.327-3.169,1.08-6.184,4.152-8.368l1.917,2.876c4.899-1.526-2.588-7.494,2.493-9.509c-2.598-2.561-6.156-1.647-8.948-3.748
						c3.457,1.784,7.656-1.634,4.902-2.613c2.483-4.589,2.519-2.384,3.445-2.063l0.502-3.647c2.609-2.357,4.177,2.587,4.736,4.979
						c-0.461-5.093,4.019-5.662,7.087-7.854l0.094,2.226l3.927-2.994c0.241-4.271,3.253-7.579,7.227-9.433l1.382,5.408
						c3.816-0.273-0.123-2.228-0.158-3.346c1.574-4.889,4.574-3.276,8.199-3.069C427.127,685.91,441.373,689.891,440.709,680.358z
						 M345.162,258.626l-0.191,0.969C343.41,258.827,342.268,258.571,345.162,258.626z M367.4,292.155
						c-4.343-2.852-1.601-2.921-0.734-3.989c1.7,4.642,4.489,5.912,5.66,10.256c0.386-1.108,1.357-1.961,1.883-2.604
						c0.787,1.503,0.905,3.485-0.749,5.371C368.321,302.297,368.456,288.826,367.4,292.155z M295.492,232.243
						c0.392-0.073,0.809-0.136,1.205-0.161l0.016,0.022L295.492,232.243z M312.892,249.271c-0.649,0.881-0.764,1.691-0.66,2.505
						C313.023,250.667,313.635,249.705,312.892,249.271z M335.759,291.561c-0.995,2.065,0.958,3.757,2.398,4.978
						C337.837,295.715,337.451,294.106,335.759,291.561z M510.068,532.214c-0.654-0.248-1.706-0.521-2.635-0.472
						c-0.934,0.042-1.748,0.399-2.072,1.207c1.009-0.07,0.988,0.444,1.046,0.874c0.063,0.437,0.211,0.796,1.73,0.66
						c-0.054,0.093-0.106,0.116-0.16,0.176C509.212,533.566,510.129,532.472,510.068,532.214z M450.756,632.388
						c-1.212-1.58-1.979-3.852-3.523-4.429c0.128-0.041,0.261-0.126,0.4-0.172c-0.73-0.223-1.338-0.401-1.448-0.906
						c-1.092,0.536-2.284,1.055-2.453,2.032C448.018,633.748,447.026,636.2,450.756,632.388z"/>
					<path fill="#FFFFFF" d="M465.433,580.232c-0.316,0.458-0.654,0.726-0.823,1.037
						C464.863,581.016,465.117,580.69,465.433,580.232z"/>
					<path fill="#FFFFFF" d="M443.914,628.765c0.215,0.361,1.63-0.145,3.319-0.806C446.428,627.632,445.397,627.748,443.914,628.765
						z"/>
					<path fill="#FFFFFF" d="M267.934,156.103l1.34,0.765l-0.052-3.407c-4.468-2.561-6.878-1.129-10.17-0.195
						c4.885,1.666,5.148,4.632,8.99,8.505L267.934,156.103z"/>
					<path fill="#FFFFFF" d="M251.839,170.501c-0.424,0.881-1.501,3.088-1.264,3.782l1.995-0.567L251.839,170.501z"/>
					<path fill="#FFFFFF" d="M276.361,221.087l-1.184-4.612C272.967,216.327,273.504,222.273,276.361,221.087z"/>
					<path fill="#FFFFFF" d="M292.554,185.324l-3.112-0.647c-0.181,2.706,1.63,4.872,3.817,3.877
						C290.581,187.018,293.915,187.23,292.554,185.324z"/>
					<path fill="#FFFFFF" d="M282.954,231.044c3.957-1.121,1.182,4.617,4.688,3.239
						C286.092,233.956,286.232,228.973,282.954,231.044z"/>
					<path fill="#FFFFFF" d="M311.069,207.157c2.157-3.269-1.828-3.294-2.759-6.084
						C309.669,202.979,308.427,207.889,311.069,207.157z"/>
					<path fill="#FFFFFF" d="M305.717,244.064c-2.381,1.421-3.313-0.217-4.009-2.307c1.107,0.076,2.421-0.293,3.322,0.217
						c-3.788-1.606-3.577-2.05-6.255-3.585c0.053,3.408,1.472,7.575-1.591,9.205C300.493,247.79,305.135,247.65,305.717,244.064z"/>
					<path fill="#FFFFFF" d="M315.36,212.404c-0.485-2.531,0.782-5.159-1.021-7.318c-1.288,1.516-3.026,3.902-0.754,6.308
						l-3.303,0.919C310.122,216.163,313.068,208.859,315.36,212.404z"/>
					<path fill="#FFFFFF" d="M307.107,258.887l0.391-2.013c-3.999-1.171-5.392-5.344-9.793-4.473
						C300.178,255.496,304.444,258.487,307.107,258.887z"/>
					<path fill="#FFFFFF" d="M317.15,225.231l3.925-2.254c-1.388-3.026-1.093,1.07-2.643,0.739c-0.013-1.137-0.495-2.518-1.588-2.58
						C319.545,223.78,314.019,223.444,317.15,225.231z"/>
					<path fill="#FFFFFF" d="M327.426,231.094l4.001,2.292l2.111-5.529C329.289,224.857,331.122,229.293,327.426,231.094z"/>
					<path fill="#FFFFFF" d="M327.969,237.036l-0.432,0.883l9.077,1.252C332.167,237.741,332.377,237.31,327.969,237.036z"/>
					<path fill="#FFFFFF" d="M348.388,316.117c1.985-0.547,1.801-4.942,0.965-2.41C347.639,314.062,348.458,319.515,348.388,316.117
						z"/>
					<path fill="#FFFFFF" d="M369.057,282.908c-0.149,2.305,5.497,5.487,8.07,6.807C374.588,287.766,370.939,281.04,369.057,282.908
						z"/>
					<path fill="#FFFFFF" d="M378.162,290.263c-0.216-0.101-0.598-0.305-1.036-0.548
						C377.511,290.018,377.834,290.203,378.162,290.263z"/>
					<path fill="#FFFFFF" d="M449.005,372.47c0.21,0.189,0.481,0.33,0.871,0.338C449.563,372.702,449.329,372.579,449.005,372.47z"
						/>
					<path fill="#FFFFFF" d="M446.589,371.026c-0.484-1.797-3.452-3.932-5.499-3.207c2.396,1.661,4.292,3.29,7.915,4.651
						C448.115,371.622,448.449,369.568,446.589,371.026z"/>
					<path fill="#FFFFFF" d="M460.186,391.812c-1.75-0.335-2.263-2.142-3.535-0.688C456.39,392.204,459.621,393.269,460.186,391.812
						z"/>
					<path fill="#FFFFFF" d="M497.256,540.927c-0.838,0.12-1.029,0.227-0.59,0.382c0.443,0.149,1.509,0.355,3.318,0.54
						C500.458,541.312,498.061,541.335,497.256,540.927z"/>
					<path fill="#FFFFFF" d="M500.069,542.603l-1.712-0.27c-0.937-0.076-1.851-0.175-2.743-0.295
						C497.054,542.271,498.54,542.459,500.069,542.603z"/>
					<path fill="#FFFFFF" d="M493.055,543.799c-0.37-0.269-0.742-0.591-0.945-0.791
						C492.351,543.313,492.575,543.641,493.055,543.799z"/>
					<path fill="#FFFFFF" d="M492.003,542.862c0.017,0.035,0.055,0.087,0.107,0.146L492.003,542.862z"/>
					<path fill="#FFFFFF" d="M492.927,543.205l-1.341-0.778c0.176,0.135,0.293,0.28,0.417,0.436
						C491.96,542.764,492.184,542.822,492.927,543.205z"/>
					<path fill="#FFFFFF" d="M492.019,544.114c1.213,0.81,2.515,1.531,3.904,2.165c-0.543-0.948-1.219-1.051-2.058-1.425
						c-0.869-0.344-1.832-1.028-3.536-2.556C490.935,542.861,491.498,543.466,492.019,544.114z"/>
					<path fill="#FFFFFF" d="M486.688,551.136c-3.104,1.133-1.388,8.96-6.173,6.577c-4.121,7.881,7.366,4.595,1.857,12.816
						c8.34-4.639-3.606-10.204,4.144-13.974C481.509,557.116,486.619,552.925,486.688,551.136z"/>
					<path fill="#FFFFFF" d="M493.741,556.144c-1.453-2.142-4.304,0.389-3.944,2.425
						C490.777,557.985,494.639,559.147,493.741,556.144z"/>
					<polygon fill="#FFFFFF" points="476.57,564.476 473.354,564.929 474.023,566.56 					"/>
					<path fill="#FFFFFF" d="M468.895,570.719l-0.298-3.87C468.821,568.25,465.982,570.765,468.895,570.719z"/>
					<path fill="#FFFFFF" d="M456.605,577.811c-2.387,0.975,0.904,7.311,3.401,2.71l-0.993,0.624
						C458.477,580.189,454.87,580.402,456.605,577.811z"/>
					<path fill="#FFFFFF" d="M441.742,607.79c1.263-1.053,2.015-3.034,0.778-3.789l-2.192,4.149L441.742,607.79z"/>
					<path fill="#FFFFFF" d="M453.908,619.02c3.992,1.86,2.737-3.21,5.812-4.351C456.76,616.495,456.645,615.81,453.908,619.02z"/>
					<path fill="#FFFFFF" d="M433.962,607.256c-0.35-2.061,1.752-2.609,2.743-3.209C434.65,602.77,432.901,605.382,433.962,607.256z
						"/>
					<path fill="#FFFFFF" d="M429.909,613.315c-2.22-0.148-1.409-1.864-2.998-1.888c-3.546,0.901-5.705,3.412-5.353,6.291
						c1.833,0.66,6.016,3.245,6.569,5.633c2.517-4.581-1.09-11.82,4.809-9.38l-2.133-8.063
						C427.14,607.922,432.188,611.654,429.909,613.315z"/>
					<path fill="#FFFFFF" d="M446.776,615.832l-3.608,0.193c2.037,1.277,0.885,3.009,0.417,4.561
						C447.813,623.816,445.91,617.136,446.776,615.832z"/>
					<polygon fill="#FFFFFF" points="412.472,635.244 409.301,640.142 410.822,639.038 					"/>
					<polygon fill="#FFFFFF" points="408.692,636.638 407.508,635.664 406.405,640.73 					"/>
					<polygon fill="#FFFFFF" points="403.196,639.593 403.843,639.285 405.28,635.973 					"/>
					<path fill="#FFFFFF" d="M394.064,647.278l2.308,0.827c0.606-1.436,4.416-1.716,2.094-3.647
						C398.297,646.063,395.917,647.925,394.064,647.278z"/>
					<path fill="#FFFFFF" d="M406.138,715.068c-0.312-1.771-1.663-2.249-3.042-2.752l1.518,3.834
						C404.822,715.67,405.24,714.73,406.138,715.068z"/>
					<path fill="#FFFFFF" d="M396.918,715.587l0.061,6.047c3.917-2.979,1.998-5.861,4.53-9.34c-2.241,0.308-1.838,4.271-4.281,5.047
						L396.918,715.587z"/>
					<path fill="#FFFFFF" d="M334.644,773.2c-1.692-2.233-2.092-1.28-1.143-4.778c-1.832,4.266-4.881,6.455-8.078,10.243
						c1.83,0.646,1.367,5.394,2.177,3.52l2.712-5.074l0.757,1.926C335.31,777.807,330.661,775.056,334.644,773.2z"/>
					<path fill="#FFFFFF" d="M157.224,909.013c-0.59-1.315-1.922-1.707-3.255-2.101C152.707,910.301,157.49,908.343,157.224,909.013
						z"/>
				</g>
			</g>
		</g>
	</g>
</g>
<g>
	<g>
		<g>
			<g>
				<g>
					<path fill="#FFFFFF" d="M236.396,130.093c-3.801,0.481-0.752,1.001,0.5,2.362L236.396,130.093z"/>
					<path fill="#FFFFFF" d="M236.896,132.455l0.344,1.678C237.535,133.467,237.315,132.927,236.896,132.455z"/>
					<path fill="#FFFFFF" d="M242.301,146.826c-4.152-1.641-2.876-7.157-7.687-6.912
						C234.139,144.234,237.768,148.417,242.301,146.826z"/>
					<polygon fill="#FFFFFF" points="242.109,140.903 239.859,141.686 244.543,142.527 					"/>
					<polygon fill="#FFFFFF" points="242.886,137.941 242.358,138.749 246.805,141.71 					"/>
					<path fill="#FFFFFF" d="M246.689,157.897l-2.3-2.709c1.147-4.429,4.806-0.259,5.586-3.226c-2.19-3.772-6.527,2.004-8.325-3.25
						c-2.394,1.873,4.357,7.563-0.179,9.148C242.454,162.579,244.002,156.669,246.689,157.897z"/>
					<path fill="#FFFFFF" d="M373.335,327.772c-0.096,0.261-0.087,0.433-0.139,0.648
						C373.538,328.002,373.755,327.646,373.335,327.772z"/>
					<path fill="#FFFFFF" d="M404.852,376.113c-0.028,0.928,0.116,1.76,0.329,2.526c0.303-0.444,0.542-0.927,0.651-1.447
						L404.852,376.113z"/>
					<path fill="#FFFFFF" d="M347.708,300.88c0.046-0.981-0.014-1.818-0.116-2.557C347.228,299.029,347.142,299.857,347.708,300.88z
						"/>
					<path fill="#FFFFFF" d="M410.399,609.424c-0.165-0.322-0.421-0.692-0.857-1.121c-0.035-0.001-0.086,0.011-0.149,0.01
						l0.562,1.311L410.399,609.424z"/>
					<path fill="#FFFFFF" d="M443.263,428.459c0.503,0.761,1.042,1.481,1.714,2.013C444.297,429.122,443.76,428.586,443.263,428.459
						z"/>
					<path fill="#FFFFFF" d="M337.051,283.029c0.132,0.29,0.269,0.529,0.406,0.768c0.014-0.325-0.018-0.739-0.115-1.168
						l-0.312,0.364L337.051,283.029z"/>
					<path fill="#FFFFFF" d="M401.037,356.622c0.1,0.843,0.23,1.583,0.543,2.095C401.564,357.902,401.338,357.232,401.037,356.622z"
						/>
					<path fill="#FFFFFF" d="M268.652,206.883c0.115,1.071,0.78,1.637,1.626,1.995C270.58,207.98,270.294,207.221,268.652,206.883z"
						/>
					<path fill="#FFFFFF" d="M279.315,224.527c-0.041-0.022-0.062-0.059-0.082-0.093
						C278.802,224.821,278.936,224.813,279.315,224.527z"/>
					<path fill="#FFFFFF" d="M285.484,236.174c-0.089-0.043-0.148-0.092-0.22-0.143
						C284.985,236.365,284.956,236.476,285.484,236.174z"/>
					<path fill="#FFFFFF" d="M270.278,208.878c-0.773,2.409-5.728,5.833,1.079,4.474l0.549-0.82c-0.649,1.894,2.56,2.31,3.504,3.532
						c0.467-0.447,0.82-0.858,1.114-1.278c-0.315-0.708-0.664-1.68-1.071-3.252C275.727,209.231,272.401,209.741,270.278,208.878z"
						/>
					<path fill="#FFFFFF" d="M372.175,328.183C373.128,327.411,371.901,326.52,372.175,328.183L372.175,328.183z"/>
					<path fill="#FFFFFF" d="M359.074,315.223c0.213,0.544,0.429,1.083,0.69,1.619C359.694,316.237,359.621,315.642,359.074,315.223
						z"/>
					<path fill="#FFFFFF" d="M327.305,256.287c-0.033,0.15-0.027,0.258-0.076,0.409
						C327.873,256.438,327.653,256.267,327.305,256.287z"/>
					<path fill="#FFFFFF" d="M360.516,318.267c-0.291-0.454-0.515-0.943-0.751-1.425
						C359.81,317.388,359.912,317.921,360.516,318.267z"/>
					<path fill="#FFFFFF" d="M334.192,275.5c-0.007,0.116-0.044,0.248-0.016,0.326C334.231,275.729,334.232,275.608,334.192,275.5z"
						/>
					<path fill="#FFFFFF" d="M216.213,805.502c0.443-1.396,2.271-0.879,3.493-1.514c-1.469-4.993-3.889,4.424-4.159-1.239
						c-0.798,0.981-1.01,2.112-1.136,3.223l4.289,1.275C219.101,804.313,216.563,807.624,216.213,805.502z"/>
					<path fill="#FFFFFF" d="M393.048,616.628l0.653-0.2c-1.684-0.913-1.896-1.562-4.087-0.528c0.961,3.284,6.126,3.826,6.398,8.374
						c0.167-0.69,0.892-1.321,1.77-1.75C394.958,621.895,393.796,619.16,393.048,616.628z"/>
					<path fill="#FFFFFF" d="M397.782,622.523c0.068,0.006,0.137,0.041,0.227,0.068c0.389,0.146,0.745,0.235,1.087,0.293
						c0.323-0.347,0.733-0.604,1.195-0.703C399.502,621.98,398.573,622.131,397.782,622.523z"/>
					<path fill="#FFFFFF" d="M246.523,772.626c0.464-0.331,0.876-0.632,1.271-0.892
						C246.713,771.776,246.446,772.125,246.523,772.626z"/>
					<path fill="#FFFFFF" d="M395.824,450.836c-0.678-0.363-1.386-0.695-2.015-0.924
						C394.491,450.665,395.159,450.854,395.824,450.836z"/>
					<path fill="#FFFFFF" d="M416.729,595.021c0.57-0.176,1.056-0.45,1.524-0.794c0.172-0.29,0.279-0.563,0.505-0.893
						L416.729,595.021z"/>
					<path fill="#FFFFFF" d="M378.245,701.384c-2.82-3.886-0.277,0.907-3.799,0.882l0.531,3.211
						C376.788,704.486,377.36,702.637,378.245,701.384z"/>
					<path fill="#FFFFFF" d="M214.083,805.875c0.112,0.095,0.207,0.176,0.308,0.291c0.013-0.064,0.005-0.116,0.021-0.194
						L214.083,805.875z"/>
					<path fill="#FFFFFF" d="M338.702,749.498c-0.421,0.111-0.779,0.224-1.145,0.359
						C337.896,749.877,338.278,749.786,338.702,749.498z"/>
					<path fill="#FFFFFF" d="M407.391,614.316l5.399-5.93l-2.39,1.037C411.435,611.765,405.968,611.65,407.391,614.316z"/>
					<path fill="#FFFFFF" d="M402.461,677.103l2.621,1.289c0.564-9.981,13.083-11.354,10.733-21.676
						c13.878-0.955-2.67-10.628,9.89-11.642l-1.273-0.688c10.117-10.619,21.196-21.004,31.505-31.73
						c5.154-5.362,10.115-10.812,14.667-16.417c2.276-2.803,4.45-5.646,6.494-8.536c1.022-1.445,2.012-2.902,2.966-4.373
						l0.708-1.105l0.349-0.555l0.641-0.903l2.634-3.751l1.562,1.235c9.264-10.017,18.533-20.371,27.66-30.791
						c-4.052-7.338-8.189-14.708-12.368-22.065l-6.296-11.023l-5.5-9.525c-4.57-7.813-9.228-15.553-13.877-23.296
						c-9.299-15.487-18.565-30.984-27.036-47.088c-3.624-2.626-6.211,1.69-9.889-0.257c-0.606-1.413-2.531-4.289-0.414-5.521
						c2.637,1.899,3.69-0.624,5.025-0.225c-2.666-4.141-3.364-11.061-8.138-13.377l-0.917,4.757c-2-0.821-2.554-3.593-3.182-5.014
						c1.727-0.237,3.61-3.9,4.94-3.125c-11.425-4.129-0.658-7.946-7.226-13.168c-6.602,1.991-16.228-3.743-23.577-6.94L405,387.798
						c2.193,3.914,4.214-2.506,6.696,2.479c-0.626-4.991-5.269-7.293-6.515-11.638c-1.038,1.578-3.062,2.484-4.597,1.332
						c-0.543-2.798,2.268-4.678,1.032-7.52l3.341,1.591c1.169-3.029-2.593-2.908-3.892-4.356c2.13-1.931,0.292-6.179,3.408-7.025
						c-5.386-1.694-4.243-4.04-8.568-6.708c-0.262,5.499-3.8,0.801-5.567,2.413l3.563,3.989c-2.04-7.333,1.625,1.833,5.506-1.026
						c-0.194,4.108-9.215-0.211-5.679,4.459c-5.567-4.811-4.435-7.153-11.406-11.341c2.911,3.271-3.115,0.84-3.238,3.562
						c-2.857-4.627,0.785-2.004,2.622-4.992c-1.588-2.5,0.233-4.797-4.189-5.402c-1.129-4.883,3.478-1.163,3.964-4.235
						c3.749-0.1,3.104,13.606,11.593,7.239c1.343,2.115,6.356,2.765,7.962,6.003c-0.365-3.42,0.398-9.045-3.619-11.232l-5.248,2.778
						c-1.594-2.494-5.397-1.02-5.998-3.13c2.049,0.13,3.205-2.883,1.601-4.708c-0.395,1.006,0.247,1.733-0.781,2.021
						c-2.572-3.603-6.39-2.12-9.962-6.115c0.812,4.519-0.288,6.176-0.512,10.968c-4.154,1.123-1.944-2.173-3.563-3.989
						c0.669,0.029,1.015,0.402,1.381-0.614l-2.994-1.206c-1.121-5.576,5.561-2.409,5.095-7.262c1.5-4.399-3.783-2.684-3.239-5.712
						c-0.253,0.325-0.524,0.666-0.689,0.923c-0.201-0.488-0.3-0.863-0.333-1.161c-0.076,0.063-0.128,0.119-0.23,0.178
						c-1.948-2.18-3.184-5.012-6.286-4.171c1.074-0.964-1.598-1.971-2.896-2.303c-1.876-0.766-6.959-2.254-3.802-6.804
						c0.067,0.033,0.061,0.105,0.114,0.141c-1.25-3.393-1.274-6.58,0.565-6.747l-1.777-5.612l3.815-1.472
						c-3.554-4.003-5.344-2.378-10.752-3.423c0.217-4.451-4.724-9.186-7.261-10.59c-0.066-0.439-0.367-0.996-1.071-1.793
						l-0.292,2.688c-1.881-3.635-3.487-2.145-4.844-4.477c-0.048,0.673-0.21,0.857-0.406-0.768c-0.166-0.431-0.348-0.898-0.51-1.494
						c0.441-0.095,0.684,0.463,0.8,1.094l0.929-1.101c2.103-4.972-4.611-3.141-5.042-6.92c0.298,0.215,0.82,0.563,0.963,0.892
						c-0.033-2.244,3.538-7.54,0.1-6.509c0.162-0.616-0.792-0.867-1.883-1.02l-0.19-1.557c0.131,0.608,0.173,1.109,0.17,1.545
						c-1.452-0.203-3.124-0.229-2.433-0.756l-1.868-4.717c0.033-1.116-1.045-1.988-2.057-2.615l1.034-1.575
						c-1.132-1.461-0.272-1.97,0.239-2.011c1.899-8.408-7.469-7.042-6.499-15.51c-3.081,0.255-2.775,3.349-3.972,4.286
						c-2.403,0.141-6.023-2.31-8.326-3.257c1.843-4.575,0.148-14.412,5.742-15.879c-2.435-5.124-2.11,3.239-5.192,1.741l-0.13-0.674
						c0.407,2.019-0.495,4.295-1.812,6.314c-2.402,1.869-5.649-2.029-5.658-3.785l4.264-1.206c-3.899-3.78-8.95,0.366-14.297-0.316
						c-0.587-4.45,3.976-4.308,6.873-6.978l-3.099-3.255l2.799-1.602c-2.152-2.034-5.09-1.112-5.942-5.147
						c4.045,0.953-0.322-6.602,5.174-5.228c-0.145-2.426-5.866,0.121-2.692-2.979c-3.737,0.396-0.516,2.549-0.907,4.042
						c-3.844,3.227-4.436-2.978-6.851-4.61c2.109-1.461,3.48,0.02,3.431-3.501c-1.997,0.414-4.273-0.541-3.09-3.231
						c-2.795,1.6-2.299-2.71-2.997-4.322c0.43,2.02-0.206,5.652-3.259,5.92c-1.882-0.683-3.098-1.504-4.454-4.743l-0.114,2.828
						c-5.616-0.291,0.468-6.057-2.896-8.906c2.552,0.551,3.095,1.5,5.894,1.652c-2.28-0.952-6.169-3.003-8.991-4.905l2.345-5.368
						c-2.262,0.795-1.769-3.514-4.564-1.914c-0.286-4.845,5.097,1.108,7.363,0.311c-0.863-5.792-6.829-1.123-5.155-8.11l3.472,0.016
						c-0.677-1.616-3.907-3.793-2.708-4.73c-0.938,0.537-0.128,1.082,0.412,2.027c-6.128,2.273-7.911-4.749-13.369-0.876
						l0.822,2.301c-2.953-2.559-8.173-2.597-7.547-6.221c0.777-2.957,4.672-0.915,6.81-0.649c-1.354-3.226-7.74,1.182-9.245-2.734
						c0.152,2.424-2.11,3.239-4.244,2.955c0.816,2.296,2.2,7.273,4.19,5.119l0.126-1.072c1.602-0.666,2.808,0.153,3.881,0.288
						c1.628,2.845-1.854,2.821-2.644,4.031c1.792,5.258,5.994-2.92,8.29,1.518l-0.795,1.207c2.688,1.23,4.735,4.33,8.604,2.873
						c-2.648,4.033,4.295,4.059,3.26,7.411c-7.969,5.087-3.662-7.685-9.552-7.582c-0.38,3.232-4.661,0.939-7.072,1.057l7.654,5.145
						c-0.791,1.213-3.678,5.654,0.054,5.25l-0.134-0.672c2.559,2.313,5.48-0.377,5.771,2.726c-0.53,0.809-2.27,0.802-2.933,0.93
						c0.55,2.7,2.944,0.824,4.561,1.913c0.564,2.691-4.011,0.787-3.836,3.205c4.674,0.819,1.636,4.589,3.131,6.762
						c4.1-3.635,11.539,5.43,12.811-1.833l6.309,3.655c-1.44,3.09-8.671-0.037-11.724,3.722l-2.323-4.457
						c-5.378,4.036,9.009,6.961,4.198,13.552c1.082,2.47,1.567,1.435,1.208,7.492l4.742-3.717c0.12,2.966-2.275,5.319-3.159,5.966
						c1.102,1.149,1.659,2.431,2.148,3.802c-0.95,0.11-1.911,0.042-2.645-0.615c-1.883,3.364-0.525,3.25,1.346,2.976
						c1.835,0.184,2.469,1.695,3.244,3.152l-2.662-0.188c0.932,0.626,2.103,1.379,3.093,0.941c0.355,0.585,0.796,1.082,1.424,1.437
						c0.681-0.898,3.155-3.569,3.324-6.386c0.997,6.464,4.493,9.978,2.824,16.964c-1.591,0.685-4.537-0.146-4.396,0.531
						c0.549,2.7,4.573,3.669,6.694,2.18c0.441,0.431,0.721,0.793,0.935,1.131c-1.039,1.169-2.106,2.489-1.716,3.697
						c-0.327,0.516-0.501,1.158-0.224,2.031c4.539-1.59,4.975,3.938,7.382,3.815c-0.164-1.27-0.917-2.507-1.788-3.703
						c3.781,0.262,7.848,0.103,6.453,2.775c-4.55-1.898-2.197,6.061-6.26,1.601c-3.145,6.572,4.802-0.26,5.131,4.601l-0.641,3.632
						c-3.2,1.334-3.772-3.124-4.563-1.911l1.35,1.493c-3.217-0.425-5.43-7.707-11.052-9.749l2.892,8.905
						c9.295,7.986,12.366,22.826,23.777,27.586c-0.084-0.112-0.187-0.213-0.29-0.314c0.377-0.019,0.971-0.264,2.176-0.794
						l-0.526,0.81l3.213,0.395c-1.697,3.512-0.203,7.411-0.679,11.729c0.75-2.969,0.75-2.969,2.877-4.438
						c3.208-1.33,4.644-1.761,5.167,1.714c-2.099,1.242-3.052-0.541-3.535,2.518c0.42-1.678,2.466-1.569,3.445-0.483
						c-0.457,2.387,0.777,5.221-1.334,6.476c-1-0.41-0.614-1.426-0.585-2.108c-0.994-0.414-0.19,4.106-3.19,2.903l2.263,2.542
						c-0.808,2.702-3.437,0.479-4.192,1.802c4.197,3.981,10.488,3.648,14.422,7.174c-1.245,0.44-6.011,3.106-4.609,2.367
						c0.49,4.163,9.261,4.231,11.825,7.821c-1.721,0.242-1.977-1.503-3.317-2.267c4.874,12.683,10.241,22.28,11.985,35.794
						l6.492,0.058l-1.601,4.708c3.476,13.283,11.672,20.312,19.39,30.415c2.257,3.231-2.22,3.985-2.675,6.374
						c3.728,7.79,10.265,6.471,15.436,12.969c-2.056-0.126-7.201,0.601-5.646,3.783c1.732-0.231,4.154-1.123,4.396,1.31
						l-2.057-0.128c-1.17,3.018,1.875,3.544,3.038,7.744c3.806,6.417,10.79,10.623,19.208,12.872
						c2.783,6.007-5.576,2.403-6.009,4.094c-0.527-5.059-2.466-2.314-4.648-2.228c2.601,1.349,4.922,3.449,2.075,6.539
						c1.913,2.856,2.529,4.29,6.552,5.893c-2.023-0.808-0.875-3.15,1.492-2.663c0.186,3.125,5.056,8.567,0.519,10.707
						c8.919,13.61,17.036,29.908,25.875,44.895c3.699,1.263-0.237-2.43,2.14-1.934c5.035,2.033,0.162,3.791,4.18,5.425l-3.066,0.132
						c2.167,4.611,9.231,6.785,13.864,9.802c-0.774,0.208-1.176,0.612-1.399,1.059c-0.252,0.396-0.427,0.659-0.561,0.916
						c-0.141,0.243-0.277,0.417-0.537,0.484c-0.13,0.034-0.291,0.041-0.498,0.019c-0.104-0.011-0.218-0.029-0.346-0.054
						l-0.202-0.043c-0.095-0.058-0.207-0.142-0.319-0.221c0.051,0.057,0.091,0.122,0.119,0.193c0.035,0.083,0.043,0.146,0.021,0.18
						c-0.03,0.094-0.102,0.212-0.211,0.348c-0.218,0.273-0.583,0.619-1.049,1c-0.93,0.763-2.264,1.653-3.58,2.429
						c-2.617,1.578-5.208,2.617-3.78,2.245c4.089-1.547,8.016-3.376,11.782-5.487c1.211-0.444,1.361,1.395,2.098,0.956
						c-0.951,0.909-2.048,1.791-2.898,2.459c-0.847,0.674-1.44,1.145-1.297,1.388c-3.346,0.746-3.159-0.348-3.413-0.935
						c-2.699,0.784-3.363,1.384-4.076,1.785c-0.694,0.435-1.465,0.621-4.149,0.977c0.557,0.065,1.314-0.021,2.178-0.204
						c0.873-0.167,1.831-0.467,3.04-0.393c-0.281,0.293-0.582,0.552-0.904,0.775c0.595-0.192,1.165-0.426,1.71-0.703
						c1.061,0.205,2.812,0.346,3.977,0.645c1.153,0.278,1.755,0.771,0.272,1.25c0.966,0.211,1.949,0.453,2.951,0.728
						c1.069,0.358,2.091,0.772,3.064,1.243c-2.595-0.277-3.013-0.093-3.03,0.26c-0.011,0.345,0.338,0.904-0.502,1.119
						c-0.862-0.402-1.747-0.776-2.655-1.124c-0.49,0.787-1.55,0.893-3.449,0.688c-1.743-0.878-1.446-0.876-1.096-0.897
						c0.341-0.01,0.713-0.02-1.129-0.623c-0.585,0.034-1.146,0.038-1.682,0.014c1.222,0.452,2.235,0.943,3.147,1.368
						c0.917,0.419,1.74,0.761,2.723,0.747c1.952,1.215,3.629,2.461,4.439,3.777c0.816,1.309,0.7,2.764-0.795,4.234
						c-2.208-0.632-2.554-1.654-2.964-2.592c-0.382-0.971-0.803-1.885-2.666-2.878c-0.39,0.116-0.566,0.328-0.603,0.641
						c-0.011,0.081-0.003,0.156-0.007,0.26c-0.076,0.188-0.141,0.379-0.196,0.573c-0.111,0.387-0.183,0.785-0.223,1.189
						c-0.16,1.621,0.194,3.362,0.646,5.051c0.902,3.378,2.188,6.549,0.512,8.135c-5.088,3.35-1.934,5.59-5.566,10.288
						c-0.951-3.281-5.008,1.186-7.78,0.259l-0.734-3.695c-0.494,1.946-2.465,2.543-3.701,0.793
						c3.151,2.238-2.236,8.194-3.486,12.494l2.965,1.582c-1.234,3.146-2.522,7.859-5.361,9.893
						c-2.457,4.524,0.501,5.534,0.714,10.811c-3.651-0.287-6.163-2.73-8.438-5.6c2.152,0.058,2.882-2.318,5.093-3.352
						c1.966-6.689-0.101-14.946,5.228-18.756c-4.276-7.252-2.073,3.865-6.204,4.406c-0.303-0.378-0.276-0.647-0.183-0.878
						c-0.191,0.198-0.375,0.362-0.678,0.439c0.731-2.369,2.171-6.017-0.527-9.119c-1.845,3.434,4.268,7.25-1.404,8.646
						c-0.579,4.116-7.204,2.239-8.999,3.5c0.754,3.709,5.556,7.918,0.893,11.506l-1.768-4.808c-4.286,4.9,2.999,6.557-1.057,11.021
						c1.774-1.274,2.01,4.396,4.712,1.403c0.529,3.05-1.968,6.688-5.07,8.348c-0.033,1.091,1.04,1.117,2.09,2.215
						c4.712-0.754,1.417-6.313,6.737-5.697l-2.028-5.029c3.506-1.443,6.673,0.798,6.783,3.599c0.462-0.854,0.494-1.92,1.583-1.905
						c5.886,4.245-4.581,1.418-0.662,6.28l1.148-2.147c4.242,2.25-0.459,6.905-2.696,9.033c-3.93,1.217-6.597,3.119-9.341,1.097
						l1.904-4.499c-3.638,0.081-2.636,5.572-4.497,7.552c-0.471-0.166-0.906-0.193-1.297-0.11c0.319,0.089,0.605,0.228,0.858,0.442
						c-0.499,0.331-1.149,0.452-2.053,0.261c-1.677,1.698-2.354,5.708-4.62,6.692l2.493,1.757l-1.108-1.335
						c1.502-1.584,4.842-2.626,5.5,0.098c-1.571,5.114-6.677,2.079-9.45,1.259c-2.82-3.879,3.14-3.629,3.545-6.564
						c-4.481-1.832-3.603,3.499-9.213,5.396c-2.543-4.815,3.871-4.439,1.042-8.308c-3.308,2.56-1.265,5.697-5.031,8.146
						c-1.426-1.934,1.12-5.273-1.351-7.011l-2.888,1.171c4.169-5.36-5.559-3.163-3.072-7.995c-3.195,0.563,0.883,5.326-3.855,5.96
						c2.317,0.67,7.209,1.104,6.515,4.972l-3.622,1.967c-2.901-0.356-1.502-6.535-4.696-5.966l-1.291,4.182
						c1.232,0.868,3.059-0.108,3.854,2.155c-2.742,0.72,1.964,6.67,1.893,10.201c-1.502,1.584-2.859,2.702-4.7,2.15
						c-0.161,7.071-4.788,12.276-4.838,18.878c-0.069-4.591-4.016-3.232-7.088-3.132c2.09-3.44-1.495-6.524-3.984-8.278
						c-1.178,2.175,1.504,6.533,3.503,6.627c-4.093,1.827,0.692,4.249-4.035,4.893c-2.737,0.694-2.809-3.896-4.681-4.445
						c-2.991,3.189,3.609,4.625-0.311,7.52c-0.312-0.606-0.179-1.061-1.089-1.342c-2.418,1.307-2.507,4.847-1.079,6.782
						c-6.459-1.915-4.466,6.282-8.68,2c-2.785,5.759,3.093,1.417,3.894,3.701c0.384,3.651-4.314,5.813-5.985,6.314
						c0.89-1.248,0.547-3.382,2.211-3.9l-4.017-1.698c-7.25,3.952,4.013,9.82-3.553,13.157c0.826-4.329-1.579-3.014-2.583-6.363
						c0.046,1.552-4.618,5.236,0.091,4.61c-2.079,1.903-3.902,2.899-5.728,3.876c-0.388,2.928-1.254,5.726-0.117,8.589
						c-2.861,2.704-6.986,3-9.581,3.249c-3.037,8.22-11.867,10.688-15.041,19.367l0.604-0.326c-4.942,4.629,6.141,1.313,1.503,6.541
						c-3.282-4.014-5.332,0.963-8.852,0.937c-7.543,4.841-6.755,13.71-14.479,17.508c-0.771-0.74-1.41-1.953-0.52-3.201
						c-5.125,3.556-7.495,7.921-11.22,11.888l-0.324-0.584c-8.787,3.967-10.124,13.214-15.032,20.881
						c-0.016-0.973-1.356-2.362-1.508-3.233c-3.818,2.718-9.087,7.775-7.613,13.215c-7.315,0.866-1.149,3.713-9.349,5.854
						c-0.941-0.276-0.193-1.069-0.042-1.546c-3.491,1.512-4.66,3.694-7.353,5.937c-2.46,7.902,1.319,13.586-5.914,19.058
						c-5.574-4.144,2.213-5.26-1.861-8.978c-0.204,2.14-0.119,4.22-2.952,5.012c-1.116-2.867-1.095-1.347-2.369-3.753
						c-2.592,0.241,0.639,10.405,0.165,9.953c0.956,0.945,1.921,0.926,2.906-0.531c1.909,4.332-5.361,6.854-6.829,11.231
						c0.995-0.982,4.86-3.446,6.293-0.073c-4.841,3.436-1.003,9.201-1.505,14.053c-5.819,2.008-1.907-6.748-6.253-9.132
						c-1.924-0.47-6.258-1.36-6.262-4.282c-3.872,2.959-2.925,8.263-4.872,12.183l-0.967-0.974
						c-3.409,4.887-2.933,13.596-8.261,15.603l2.906-0.996c-0.006,1.273-2.246,3.295-1.181,6.363
						c-1.626-1.615-5.694,0.005-6.101-2.42c3.861,6.742-5.352,13.151-1.994,19.886c-2.421,0.021-3.858-2.861-4.813-4.305
						c2.904-2.445,4.832-2.475,3.881-5.862c-1.94,2.438-4.844,2.965-5.805,1.521c1.443,5.319-1.997,12.133,0.456,16.273
						c-3.211,0.259-5.554,1.115-7.926-1.944c-4.391,8.807,11.965,3.97,4.937,12.156c-5.982,1.37-0.682-6.879-6.027-2.518
						l0.353-1.343c-10.609-2.584,3.082,7.128-0.757,11.148c-4.536-2.881-0.392-5.406-5.772-4.952
						c-2.265,4.74,2.295,11.532-2.292,14.3l-1.204-2.067c-1.783,2.751-6.699,6.859-8.47,9.598c-0.898-0.562-0.479-0.824-0.299-1.481
						c-5.41,3.262,0.449,3.665-5.522,5.022l1.053,2.738c2.994-0.688,8.056-2.634,7.76-6.969c0.296,4.335,8.284,0.637,10.735,4.746
						l-0.986-1.647c11.206-1.146,18.731-8.501,27.646-14.461c0.071-8.478,8.834-7.023,10.496-14.774
						c-4.027-4.85-0.104-1.804,2.825-7.18c-1.465,2.92,3.358,3.348,5.295,2.361c-0.464-1.931,0.013-3.394,0.504-4.851
						c2.406,0.456,11.11-2.066,9.684-6.903c3.88-1.49,0.966,1.939,1.433,3.381c3.388,0.93,0.022-3.879,2.437-3.419
						c0,0,0.475,0.479,0.466,0.972c3.422-4.417,6.816-5.907,11.171-9.831c-4.336-4.312,1.949-5.838,1.96-9.219
						c0.959,1.914,3.856-1.013,5.802-1.523l-1.437-5.305c-0.94-4.84,4.84-1.511,5.833-5.893l-1.457,0.025
						c0.497-3.405,8.242-6.87,12.592-6.926c8.326-28.198,32.02-27.358,47.898-51.037c-0.206-2.593-3.223-0.969-4.36-3.831
						c1.326-2.647,1.947-2.982,3.576-5.032c-2.745,0.704-0.954,1.737-2.056,0.414l-1.29,4.169c-0.468-0.143-0.32-0.597-1.231-0.87
						c-0.446,1.392-0.542,3.39-1.908,4.501c0.403-2.915-2.574-6.355,0.928-7.838c0.304,0.6,0.167,1.059-0.115,1.99
						c2.088-1.903,0.535-3.404,2.806-4.237c2.431-1.313,0.963-1.729,2.667-0.719l7.027-4.523c-1.518-6.524,5.568-6.954,6.784-7.616
						c2.508,3.273-2.484,4.84-0.738,8.904l4.115-0.289l-2.347-2.219l3.332-2.557l0.323,0.577c-0.645-1.187-1.272-2.379,0.254-2.459
						c0.458,0.154,1.386,0.419,1.234,0.889l0.543-3.388c1.443,3.464,2.426-1.313,5.083,1.503
						c7.661-6.032,3.915-12.625,13.366-15.632c-2.269-0.135-2.909-5.97-0.696-7.484c1.685-0.527,2.595-0.248,3.102,1.425
						l0.689-3.862c7.335,0.658,7.068-5.009,12.663-8.423l1.086,1.346c-0.038-3.059,0.352-5.987,3.075-8.224l2.173,2.676
						c4.562-1.686-3.337-7.082,1.344-9.244c-2.796-2.343-6.13-1.307-9.062-3.198c3.539,1.559,7.212-1.913,4.443-2.73
						c1.885-4.519,2.166-2.402,3.096-2.136l0.078-3.526c2.257-2.382,4.324,2.297,5.131,4.57c-1.016-4.871,3.249-5.618,5.967-7.861
						l0.34,2.134l3.458-3.053c-0.245-4.112,2.294-7.425,5.925-9.384l1.94,5.134c3.656-0.435-0.368-2.135-0.527-3.207
						c0.974-4.767,4.052-3.352,7.577-3.315C389.963,683.043,404.168,686.229,402.461,677.103z M326.131,258.833l-0.309,0.905
						C324.397,258.908,323.315,258.59,326.131,258.833z M343.58,292.062c-3.876-2.987-1.191-2.873-0.211-3.828
						c1.071,4.51,3.631,5.896,4.223,10.09c0.516-1.024,1.572-1.769,2.167-2.343c0.577,1.475,0.442,3.361-1.411,5.039
						C343.194,301.732,345.032,288.976,343.58,292.062z M281.015,230.574c0.391-0.044,0.806-0.076,1.196-0.073l0.013,0.021
						L281.015,230.574z M295.833,247.851c-0.745,0.792-0.959,1.552-0.961,2.331C295.785,249.182,296.504,248.31,295.833,247.851z
						 M312.785,289.422c-1.232,1.891,0.459,3.623,1.709,4.873C314.286,293.495,314.113,291.945,312.785,289.422z M453.402,530.716
						c-0.575-0.224-1.511-0.452-2.359-0.356c-0.853,0.089-1.622,0.498-1.981,1.345c0.923-0.122,0.863,0.409,0.882,0.848
						c0.023,0.447,0.128,0.809,1.521,0.594c-0.057,0.098-0.106,0.125-0.159,0.189C452.516,532.15,453.437,530.978,453.402,530.716z
						 M406.799,630.578c-1.348-1.465-2.343-3.611-3.898-4.097c0.119-0.045,0.238-0.133,0.367-0.183
						c-0.73-0.181-1.337-0.326-1.5-0.806c-0.995,0.563-2.088,1.115-2.143,2.062C404.307,632.007,403.623,634.406,406.799,630.578z"
						/>
					<path fill="#FFFFFF" d="M415.143,579.825c-0.254,0.454-0.55,0.727-0.68,1.033C414.68,580.604,414.888,580.279,415.143,579.825z
						"/>
					<path fill="#FFFFFF" d="M399.785,627.404c0.249,0.338,1.558-0.212,3.116-0.923
						C402.087,626.203,401.104,626.361,399.785,627.404z"/>
					<path fill="#FFFFFF" d="M263.776,156.62l1.21,0.813l0.38-3.232c-4.035-2.719-6.567-1.521-9.897-0.852
						c4.556,1.898,4.436,4.727,7.693,8.648L263.776,156.62z"/>
					<path fill="#FFFFFF" d="M246.248,169.208c-0.525,0.807-1.855,2.828-1.712,3.5l2.018-0.407L246.248,169.208z"/>
					<path fill="#FFFFFF" d="M263.764,218.748l-0.571-4.447C261.055,214.015,260.826,219.684,263.764,218.748z"/>
					<path fill="#FFFFFF" d="M284.094,185.924l-2.955-0.817c-0.52,2.552,0.974,4.723,3.233,3.924
						C281.954,187.4,285.179,187.82,284.094,185.924z"/>
					<path fill="#FFFFFF" d="M268.934,228.615c4.002-0.802,0.568,4.453,4.164,3.377C271.626,231.58,272.396,226.868,268.934,228.615
						z"/>
					<path fill="#FFFFFF" d="M299.391,207.827c2.519-2.957-1.366-3.242-1.921-5.947
						C298.555,203.776,296.721,208.346,299.391,207.827z"/>
					<path fill="#FFFFFF" d="M289.493,242.445c-2.503,1.19-3.204-0.423-3.619-2.449c1.07,0.145,2.399-0.119,3.213,0.424
						c-3.492-1.771-3.229-2.177-5.648-3.808c-0.381,3.232,0.476,7.274-2.719,8.617C283.924,245.633,288.471,245.805,289.493,242.445
						z"/>
					<path fill="#FFFFFF" d="M302.913,213.08c-0.153-2.43,1.417-4.837-0.069-7.001c-1.449,1.352-3.446,3.499-1.536,5.928
						l-3.339,0.654C297.325,216.298,301.126,209.57,302.913,213.08z"/>
					<path fill="#FFFFFF" d="M288.971,256.582l0.636-1.881c-3.753-1.372-4.583-5.417-8.989-4.881
						C282.641,252.914,286.423,256.029,288.971,256.582z"/>
					<path fill="#FFFFFF" d="M303.034,225.351l4.115-1.878c-0.971-2.959-1.202,0.942-2.672,0.527
						c0.131-1.078-0.163-2.418-1.223-2.549C305.555,224.134,300.206,223.453,303.034,225.351z"/>
					<path fill="#FFFFFF" d="M312.316,231.581l3.613,2.435l2.76-5.1C314.925,225.793,316.151,230.118,312.316,231.581z"/>
					<path fill="#FFFFFF" d="M312.093,237.246l-0.533,0.809l8.697,1.782C316.099,238.19,316.36,237.795,312.093,237.246z"/>
					<path fill="#FFFFFF" d="M321.995,313.518c2.005-0.388,2.383-4.564,1.247-2.22C321.524,311.521,321.632,316.743,321.995,313.518
						z"/>
					<path fill="#FFFFFF" d="M346.368,283.408c-0.438,2.174,4.668,5.56,7.011,6.979
						C351.149,288.375,348.441,281.761,346.368,283.408z"/>
					<path fill="#FFFFFF" d="M354.32,290.975c-0.198-0.11-0.545-0.328-0.941-0.587C353.715,290.7,354.007,290.896,354.32,290.975z"
						/>
					<path fill="#FFFFFF" d="M413.021,373.518c0.181,0.193,0.427,0.344,0.807,0.378
						C413.536,373.774,413.322,373.642,413.021,373.518z"/>
					<path fill="#FFFFFF" d="M410.847,371.99c-0.245-1.734-2.87-3.952-4.958-3.399c2.127,1.731,3.771,3.398,7.132,4.926
						C412.26,372.656,412.846,370.731,410.847,371.99z"/>
					<path fill="#FFFFFF" d="M421.478,392.578c-1.665-0.433-1.936-2.178-3.361-0.885C417.725,392.7,420.742,393.922,421.478,392.578
						z"/>
					<path fill="#FFFFFF" d="M441.108,540.321c-0.475,0.174-0.48,0.298,0.054,0.44c0.426,0.13,1.478,0.291,3.268,0.403
						c0.026-0.035,0.042-0.067,0.046-0.098C443.937,540.589,442.244,540.693,441.108,540.321z"/>
					<path fill="#FFFFFF" d="M444.591,541.892l-1.672-0.196c-0.907-0.037-1.796-0.098-2.666-0.18
						C441.662,541.685,443.108,541.811,444.591,541.892z"/>
					<path fill="#FFFFFF" d="M437.984,543.315c-0.384-0.246-0.775-0.543-0.992-0.729
						C437.255,542.872,437.506,543.181,437.984,543.315z"/>
					<path fill="#FFFFFF" d="M436.874,542.45c0.02,0.032,0.062,0.082,0.118,0.136L436.874,542.45z"/>
					<path fill="#FFFFFF" d="M437.798,542.746l-1.371-0.701c0.183,0.124,0.311,0.26,0.447,0.405
						C436.822,542.356,437.044,542.404,437.798,542.746z"/>
					<path fill="#FFFFFF" d="M437.022,543.66c1.251,0.736,2.577,1.385,3.979,1.945c-0.623-0.896-1.282-0.97-2.127-1.3
						c-0.871-0.299-1.869-0.925-3.667-2.337C435.849,542.489,436.454,543.053,437.022,543.66z"/>
					<path fill="#FFFFFF" d="M432.418,550.926c-2.872,1.228-0.338,8.668-5.227,6.594c-3.099,7.754,7.628,4.083,3.227,12.227
						c7.537-4.829-4.625-9.639,2.44-13.607C428.085,556.902,432.552,552.646,432.418,550.926z"/>
					<path fill="#FFFFFF" d="M439.791,555.419c-1.643-1.991-4.114,0.566-3.539,2.506
						C437.134,557.321,440.994,558.264,439.791,555.419z"/>
					<polygon fill="#FFFFFF" points="424.137,564.191 421.082,564.771 421.91,566.309 					"/>
					<path fill="#FFFFFF" d="M417.421,570.532l-0.72-3.703C417.075,568.165,414.614,570.707,417.421,570.532z"/>
					<path fill="#FFFFFF" d="M406.345,577.896c-2.196,1.043,1.69,6.98,3.589,2.45l-0.89,0.644
						C408.418,580.097,404.958,580.463,406.345,577.896z"/>
					<path fill="#FFFFFF" d="M395.341,607.356c1.103-1.068,1.607-3.005,0.328-3.675l-1.654,4.084L395.341,607.356z"/>
					<path fill="#FFFFFF" d="M408.349,617.597c4.064,1.607,2.285-3.207,5.126-4.44C410.821,615.044,410.633,614.39,408.349,617.597z
						"/>
					<path fill="#FFFFFF" d="M387.767,607.191c-0.568-1.963,1.401-2.584,2.29-3.205C387.93,602.853,386.532,605.439,387.767,607.191
						z"/>
					<path fill="#FFFFFF" d="M384.529,613.193c-2.161-0.043-1.569-1.727-3.106-1.679c-3.325,1.024-5.129,3.533-4.466,6.283
						c1.844,0.551,6.173,2.847,6.975,5.115c1.918-4.514-2.375-11.304,3.596-9.226l-2.962-7.647
						C381.251,608.138,386.544,611.496,384.529,613.193z"/>
					<path fill="#FFFFFF" d="M401.103,614.854l-3.463,0.347c2.11,1.136,1.191,2.852,0.914,4.362
						C402.998,622.477,400.413,616.146,401.103,614.854z"/>
					<polygon fill="#FFFFFF" points="370.14,635.037 367.625,639.883 368.97,638.755 					"/>
					<polygon fill="#FFFFFF" points="366.645,636.545 365.392,635.663 364.893,640.579 					"/>
					<polygon fill="#FFFFFF" points="361.666,639.631 362.256,639.306 363.273,636.061 					"/>
					<path fill="#FFFFFF" d="M353.705,647.422l2.322,0.69c0.425-1.405,4.074-1.847,1.614-3.598
						C357.657,646.064,355.567,647.959,353.705,647.422z"/>
					<path fill="#FFFFFF" d="M372.95,711.99c-0.499-1.687-1.857-2.086-3.246-2.507l1.895,3.614
						C371.746,712.627,372.045,711.706,372.95,711.99z"/>
					<path fill="#FFFFFF" d="M364.103,712.902l0.735,5.805c3.451-3.036,1.273-5.719,3.331-9.174c-2.13,0.396-1.297,4.186-3.57,5.04
						L364.103,712.902z"/>
					<path fill="#FFFFFF" d="M310.395,771.03c-1.884-2.069-2.165-1.136-1.638-4.538c-1.292,4.18-3.992,6.418-6.657,10.2
						c1.84,0.538,1.923,5.119,2.497,3.282l2.052-4.995l0.946,1.816C311.554,775.425,306.756,772.991,310.395,771.03z"/>
					<path fill="#FFFFFF" d="M154.212,909.43c-0.717-1.237-2.047-1.553-3.379-1.871C149.993,910.87,154.394,908.774,154.212,909.43z
						"/>
				</g>
			</g>
		</g>
	</g>
</g>
</svg>
