<?xml version="1.0" encoding="utf-8"?>
<!-- Generator: Adobe Illustrator 15.0.0, SVG Export Plug-In . SVG Version: 6.00 Build 0)  -->
<!DOCTYPE svg PUBLIC "-//W3C//DTD SVG 1.1//EN" "http://www.w3.org/Graphics/SVG/1.1/DTD/svg11.dtd">
<svg version="1.1" id="Calque_1" xmlns="http://www.w3.org/2000/svg" xmlns:xlink="http://www.w3.org/1999/xlink" x="0px" y="0px"
	 width="1267.655px" height="973.377px" viewBox="0 0 1267.655 973.377" enable-background="new 0 0 1267.655 973.377"
	 xml:space="preserve">
<path fill="#010202" d="M632.445,0.065c-0.623,0.114-1.239,0.268-1.843,0.46c-6.863,1.537-11.685,7.709-11.516,14.74v338.103
	c-56.405-3.87-99.918-28.722-143.717-55.736c-47.607-29.365-95.868-61.264-159.378-61.264c-61.27,0-112.646,30.068-153.39,75.082
	c-40.742,45.014-71.886,104.863-95.812,169.052C18.942,608.879,0,753.064,0,825.975c0,82.31,75.181,147.402,165.366,147.402
	c41.838,0,76.668-15.558,107.788-37.312c31.119-21.754,59.351-49.667,90.744-76.925c62.785-54.516,136.615-106.866,269.929-106.866
	c133.314,0,207.144,52.351,269.929,106.866c31.393,27.258,59.625,55.171,90.744,76.925s65.949,37.312,107.787,37.312
	c90.186,0,165.367-65.093,165.367-147.402c0-72.91-18.943-217.096-66.793-345.472c-23.924-64.188-55.068-124.038-95.811-169.052
	s-92.119-75.082-153.389-75.082c-63.51,0-111.771,31.898-159.379,61.264c-43.799,27.015-87.311,51.866-143.717,55.736V15.266
	c0.291-8.136-6.07-14.967-14.208-15.257C633.721-0.014,633.082,0.005,632.445,0.065z M315.992,265.849
	c53.615,0,95.733,27.062,143.717,56.658c47.983,29.596,101.703,61.264,174.118,61.264c72.416,0,126.134-31.668,174.119-61.264
	c47.982-29.597,90.102-56.658,143.717-56.658c51.836,0,94.805,24.603,131.74,65.41s66.729,97.883,89.822,159.838
	c46.186,123.912,64.949,267.207,64.949,334.878c0,64.225-59.736,117.922-135.887,117.922c-34.744,0-62.557-12.081-90.744-31.783
	c-28.186-19.703-56.172-47.065-88.441-75.083c-64.535-56.036-148.047-114.236-289.275-114.236
	c-141.228,0-224.739,58.2-289.275,114.236c-32.269,28.018-60.255,55.38-88.441,75.083c-28.187,19.702-55.999,31.783-90.744,31.783
	c-76.149,0-135.886-53.697-135.886-117.922c0-67.671,18.764-210.966,64.949-334.878c23.093-61.955,52.887-119.03,89.822-159.838
	S264.155,265.849,315.992,265.849z M942.911,369.03c-32.389,0-58.5,26.111-58.5,58.5s26.111,59.421,58.5,59.421
	s59.42-27.032,59.42-59.421S975.299,369.03,942.911,369.03z M322.902,398.05c-0.624,0.113-1.239,0.268-1.843,0.461
	c-6.864,1.537-11.686,7.708-11.517,14.74v103.181H206.362c-0.46-0.021-0.921-0.021-1.382,0c-8.141,0.381-14.432,7.289-14.051,15.43
	s7.289,14.432,15.43,14.051c0.001,0,0.002,0,0.003,0h103.181v103.181c-0.114,8.142,6.392,14.834,14.532,14.949
	s14.833-6.392,14.948-14.532c0.002-0.139,0.002-0.277,0-0.417V545.912h103.182c8.141,0.115,14.834-6.391,14.948-14.532
	c0.115-8.141-6.391-14.833-14.531-14.948c-0.14-0.002-0.278-0.002-0.417,0H339.023V413.251c0.29-8.137-6.07-14.968-14.207-15.258
	C324.178,397.971,323.538,397.989,322.902,398.05z M942.911,398.511c16.455,0,29.939,12.563,29.939,29.02
	s-13.484,29.94-29.939,29.94c-16.457,0-29.02-13.484-29.02-29.94S926.454,398.511,942.911,398.511z M839.729,472.211
	c-32.389,0-58.5,26.111-58.5,58.5s26.111,59.422,58.5,59.422s59.422-27.033,59.422-59.422S872.118,472.211,839.729,472.211z
	 M1047.012,472.211c-32.389,0-59.422,26.111-59.422,58.5s27.033,59.422,59.422,59.422s58.5-27.033,58.5-59.422
	S1079.401,472.211,1047.012,472.211z M839.729,501.691c16.455,0,29.941,12.563,29.941,29.02s-13.486,29.941-29.941,29.941
	c-16.457,0-29.02-13.485-29.02-29.941S823.272,501.691,839.729,501.691z M1047.012,501.691c16.457,0,29.02,12.563,29.02,29.02
	s-12.563,29.941-29.02,29.941c-16.455,0-29.941-13.485-29.941-29.941S1030.557,501.691,1047.012,501.691z M942.911,575.393
	c-32.389,0-58.5,27.032-58.5,59.421s26.111,58.5,58.5,58.5s59.42-26.111,59.42-58.5S975.299,575.393,942.911,575.393z
	 M942.911,604.873c16.455,0,29.939,13.484,29.939,29.94s-13.484,29.02-29.939,29.02c-16.457,0-29.02-12.563-29.02-29.02
	S926.454,604.873,942.911,604.873z"/>
</svg>
