<?xml version="1.0" encoding="utf-8"?>
<!-- Generator: Adobe Illustrator 15.0.0, SVG Export Plug-In . SVG Version: 6.00 Build 0)  -->
<!DOCTYPE svg PUBLIC "-//W3C//DTD SVG 1.1//EN" "http://www.w3.org/Graphics/SVG/1.1/DTD/svg11.dtd">
<svg version="1.1" id="Calque_1" xmlns="http://www.w3.org/2000/svg" xmlns:xlink="http://www.w3.org/1999/xlink" x="0px" y="0px"
	 width="66.93px" height="772.078px" viewBox="0 0 66.93 772.078" enable-background="new 0 0 66.93 772.078" xml:space="preserve">
<polygon fill="#FFFFFF" points="66.93,0 0,0 16.732,16.732 25.099,33.465 25.099,37.647 16.732,41.831 25.099,46.014 25.099,54.38 
	16.732,58.563 25.099,62.746 25.099,71.112 16.732,75.296 25.099,79.479 25.099,87.845 16.732,92.028 25.099,96.211 25.099,104.578 
	16.732,108.761 25.099,112.943 25.099,121.311 16.732,125.493 25.099,129.677 25.099,138.042 16.732,142.226 25.099,146.409 
	25.099,154.775 16.732,158.958 25.099,163.142 25.099,171.508 16.732,175.69 25.099,179.874 25.099,188.24 16.732,192.423 
	25.099,196.606 25.099,204.973 16.732,209.155 25.099,213.339 25.099,221.705 16.732,225.888 25.099,230.071 25.099,234.221 
	25.099,238.438 16.732,242.62 25.099,246.804 25.099,250.953 25.099,255.137 16.732,259.319 16.766,259.336 16.732,259.353 
	25.099,263.536 25.099,267.72 25.099,271.869 16.732,276.052 25.099,280.235 25.099,288.602 16.732,292.784 25.099,296.968 
	25.099,305.334 16.732,309.517 25.099,313.7 25.099,322.066 16.732,326.249 25.099,330.433 25.099,338.799 16.732,342.982 
	25.099,347.165 25.099,355.531 16.732,359.715 25.099,363.897 25.099,372.264 16.732,376.446 25.099,380.63 25.099,388.996 
	16.732,393.18 25.099,397.363 25.099,405.729 16.732,409.912 25.099,414.096 25.099,422.461 16.732,426.645 25.099,430.828 
	25.099,439.193 16.732,443.377 25.099,447.561 25.099,455.926 16.732,460.109 25.099,464.293 25.099,472.658 16.732,476.842 
	25.099,481.025 25.099,485.209 25.705,487.628 25.099,487.627 25.099,489.989 18.824,493.574 25.099,496.362 25.099,504.359 
	25.099,508.543 16.732,512.725 25.099,516.908 25.099,525.275 16.732,529.457 25.099,533.641 25.099,542.008 16.732,546.189 
	25.099,550.373 25.099,558.74 16.732,562.922 25.099,567.105 25.099,575.473 16.732,579.654 25.099,583.838 25.099,592.205 
	16.732,596.389 25.099,600.57 25.099,608.938 16.732,613.121 25.099,617.303 25.099,625.67 16.732,629.852 25.099,634.035 
	25.099,642.402 16.732,646.586 25.099,650.768 25.099,659.135 16.732,663.318 25.099,667.5 25.099,675.867 16.732,680.051 
	25.099,684.232 25.099,692.6 16.732,696.783 25.099,700.965 25.099,709.332 16.732,713.516 25.099,717.699 25.099,726.064 
	16.732,730.248 25.099,734.43 25.099,738.613 26.146,742.797 18.824,746.98 28.238,751.164 33.465,772.078 39.739,746.98 
	49.153,742.797 41.831,738.613 41.831,730.18 50.197,726.064 41.831,721.881 41.831,713.449 50.197,709.332 41.831,705.148 
	41.831,696.715 50.197,692.6 41.831,688.416 41.831,679.982 50.197,675.867 41.831,671.684 41.831,663.25 50.197,659.135 
	41.831,654.951 41.831,646.518 50.197,642.402 41.831,638.219 41.831,629.785 50.197,625.67 41.831,621.486 41.831,613.053 
	50.197,608.938 41.831,604.754 41.831,596.32 50.197,592.205 41.831,588.021 41.831,579.588 50.197,575.473 41.831,571.289 
	41.831,562.855 50.197,558.74 41.831,554.557 41.831,546.123 50.197,542.008 41.831,537.824 41.831,529.391 50.197,525.275 
	41.831,521.092 41.831,512.658 50.197,508.543 41.831,504.359 41.831,492.645 49.153,489.391 41.831,485.209 41.831,476.775 
	50.197,472.658 41.831,468.475 41.831,460.043 50.197,455.926 41.831,451.742 41.831,443.311 50.197,439.193 41.831,435.01 
	41.831,426.578 50.197,422.461 41.831,418.278 41.831,409.846 50.197,405.729 41.831,401.546 41.831,393.113 50.197,388.996 
	41.831,384.813 41.831,376.38 50.197,372.264 41.831,368.081 41.831,359.647 50.197,355.531 41.831,351.348 41.831,342.915 
	50.197,338.799 41.831,334.615 41.831,326.183 50.197,322.066 41.831,317.884 41.831,309.45 50.197,305.334 41.831,301.15 
	41.831,292.718 50.197,288.602 41.831,284.418 41.831,275.985 50.197,271.869 41.831,267.686 41.831,259.286 50.197,255.17 
	50.164,255.153 50.197,255.137 41.831,250.953 41.831,242.554 50.197,238.438 41.831,234.254 41.831,225.821 50.197,221.705 
	41.831,217.521 41.831,209.089 50.197,204.973 41.831,200.789 41.831,192.356 50.197,188.24 41.831,184.057 41.831,175.624 
	50.197,171.508 41.831,167.324 41.831,158.891 50.197,154.775 41.831,150.592 41.831,142.159 50.197,138.042 41.831,133.859 
	41.831,125.427 50.197,121.311 41.831,117.127 41.831,108.693 50.197,104.578 41.831,100.395 41.831,91.961 50.197,87.845 
	41.831,83.662 41.831,75.229 50.197,71.112 41.831,66.93 41.831,58.496 50.197,54.38 41.831,50.197 41.831,41.764 50.197,37.647 
	41.831,33.465 50.197,16.732 "/>
</svg>
